<?xml version="1.0" encoding="UTF-8"?>
<svg width="18px" height="18px" viewBox="0 0 18 18" version="1.1" xmlns="http://www.w3.org/2000/svg" xmlns:xlink="http://www.w3.org/1999/xlink">
    <!-- Generator: Sketch 58 (84663) - https://sketch.com -->
    <title>Shape</title>
    <desc>Created with Sketch.</desc>
    <g id="Symbols" stroke="none" stroke-width="1" fill="none" fill-rule="evenodd">
        <g id="Footer" transform="translate(-1548.000000, -431.000000)" fill="#B22D00" fill-rule="nonzero">
            <g id="social">
                <g transform="translate(1410.000000, 427.000000)">
                    <g id="instagram-social-network-logo-of-photo-camera" transform="translate(64.000000, 4.000000)">
                        <path d="M76.3103887,0 L89.6897961,0 C90.9604082,0 92,0.940705375 92,2.31018019 L92,15.6898198 C92,17.0592946 90.9604082,18 89.6897961,18 L76.3103887,18 C75.0394069,18 74,17.0592946 74,15.6898198 L74,2.31018019 C74,0.940705375 75.0394069,0 76.3103887,0 L76.3103887,0 Z M87.8865291,2 C87.398665,2 87,2.40944718 87,2.91045938 L87,5.08954062 C87,5.59034519 87.398665,6 87.8865291,6 L90.1130663,6 C90.6009304,6 91,5.59034519 91,5.08954062 L91,2.91045938 C91,2.40944718 90.6009304,2 90.1130663,2 L87.8865291,2 L87.8865291,2 Z M89.9996295,8 L88.4115078,8 C88.5617606,8.4706196 88.6430935,8.96914225 88.6430935,9.48490436 C88.6430935,12.3640726 86.1315936,14.6979761 83.0340894,14.6979761 C79.9367705,14.6979761 77.4256412,12.3640726 77.4256412,9.48490436 C77.4256412,8.96878679 77.5067888,8.47044187 77.6572268,8 L76,8 L76,15.3118432 C76,15.6902228 76.3227377,16 76.7173597,16 L89.2826403,16 C89.6772623,16 90,15.6904006 90,15.3118432 L90,8 L89.9996295,8 Z M83.4998211,6 C81.5670467,6 80,7.56690234 80,9.5 C80,11.4330977 81.5670467,13 83.4998211,13 C85.4327744,13 87,11.4330977 87,9.5 C87,7.56690234 85.4329533,6 83.4998211,6 Z" id="Shape"></path>
                    </g>
                </g>
            </g>
        </g>
    </g>
</svg>