<?xml version="1.0" encoding="UTF-8"?>
<svg width="20px" height="19px" viewBox="0 0 20 19" version="1.1" xmlns="http://www.w3.org/2000/svg" xmlns:xlink="http://www.w3.org/1999/xlink">
    <!-- Generator: Sketch 58 (84663) - https://sketch.com -->
    <title>Shape</title>
    <desc>Created with Sketch.</desc>
    <g id="Symbols" stroke="none" stroke-width="1" fill="none" fill-rule="evenodd">
        <g id="Footer" transform="translate(-1667.000000, -429.000000)" fill="#B22D00" fill-rule="nonzero">
            <g id="social">
                <g transform="translate(1410.000000, 427.000000)">
                    <g id="linkedin-logotype-button" transform="translate(257.000000, 2.000000)">
                        <path d="M16.2500123,0 L3.74998771,0 C1.67875733,0 0,1.59481947 0,3.56248832 L0,15.4375117 C0,17.4052179 1.67875733,19 3.74998771,19 L16.2500123,19 C18.321282,19 20,17.4051805 20,15.4375117 L20,3.56248832 C20,1.59481947 18.321282,0 16.2500123,0 Z M7.50000983,14.1015832 L5.00000983,14.1015832 L5.00000983,5.78908556 L7.50000983,5.78908556 L7.50000983,14.1015832 Z M6.32751185,5.27963557 C5.68002376,5.27963557 5.15626751,4.78087151 5.15626751,4.16575782 C5.15626751,3.55064413 5.68128231,3.05188007 6.32751185,3.05188007 C6.97499995,3.0530757 7.50001475,3.55180239 7.50001475,4.16575782 C7.50001475,4.78087151 6.97499995,5.27963557 6.32751185,5.27963557 Z M16.2500123,14.1015832 L13.7499975,14.1015832 L13.7499975,8.96206041 C13.7499975,8.35998655 13.5687752,7.93845264 12.7900039,7.93845264 C11.4987641,7.93845264 11.2499975,8.96206041 11.2499975,8.96206041 L11.2499975,14.1015832 L8.74999754,14.1015832 L8.74999754,5.78908556 L11.2499975,5.78908556 L11.2499975,6.58350622 C11.6075112,6.32345694 12.4999853,5.79024383 13.7499975,5.79024383 C14.5600066,5.79024383 16.2500123,6.2510093 16.2500123,9.03450805 L16.2500123,14.1015832 Z" id="Shape"></path>
                    </g>
                </g>
            </g>
        </g>
    </g>
</svg>