<?xml version="1.0" encoding="UTF-8"?>
<svg width="19px" height="23px" viewBox="0 0 19 23" version="1.1" xmlns="http://www.w3.org/2000/svg" xmlns:xlink="http://www.w3.org/1999/xlink">
    <!-- Generator: Sketch 58 (84663) - https://sketch.com -->
    <title>Shape</title>
    <desc>Created with Sketch.</desc>
    <g id="Symbols" stroke="none" stroke-width="1" fill="none" fill-rule="evenodd">
        <g id="Footer" transform="translate(-1410.000000, -427.000000)" fill="#B22D00" fill-rule="nonzero">
            <g id="social">
                <g transform="translate(1410.000000, 427.000000)">
                    <g id="pinterest-social-logo">
                        <path d="M9.90954753,0.878619946 C3.56405595,0.878619946 0.364648438,5.18305599 0.364648438,8.77278897 C0.364648438,10.94618 1.23424931,12.8794597 3.09914205,13.6002444 C3.40527583,13.7184981 3.67951076,13.6045241 3.7685419,13.2842254 C3.82995909,13.0623588 3.97588445,12.503075 4.04087242,12.2699462 C4.13037965,11.9530262 4.09538613,11.8419803 3.84876514,11.5658296 C3.31100758,10.9655511 2.96726171,10.1884551 2.96726171,9.08768178 C2.96726171,5.89415513 5.49250836,3.03534287 9.5431868,3.03534287 C13.1291894,3.03534287 15.0997769,5.10895032 15.0997769,7.87811498 C15.0997769,11.5216816 13.3955686,14.5967292 10.865799,14.5967292 C9.46843874,14.5967292 8.42291807,13.503389 8.7580941,12.1625042 C9.15944834,10.5616865 9.93668536,8.83383042 9.93668536,7.67854772 C9.93668536,6.6442217 9.35036537,5.78130728 8.13582838,5.78130728 C6.70752145,5.78130728 5.56035294,7.17940433 5.56035294,9.05209304 C5.56035294,10.2449917 5.98622645,11.05182 5.98622645,11.05182 C5.98622645,11.05182 4.52435431,16.9115743 4.26868737,17.9377915 C3.75806765,19.9812161 4.1920349,22.4866186 4.22869478,22.739569 C4.24988133,22.8895823 4.45341507,22.925171 4.54577892,22.8120979 C4.67789731,22.6492456 6.37877281,20.6623576 6.95699906,18.676821 C7.1205402,18.114609 7.89587281,15.2035398 7.89587281,15.2035398 C8.36007257,16.0407763 9.71624999,16.7784544 11.1586019,16.7784544 C15.4516165,16.7784544 18.3646484,13.0751978 18.3646484,8.11777589 C18.3648865,4.36947028 15.0090794,0.878619946 9.90954753,0.878619946 Z" id="Shape"></path>
                    </g>
                </g>
            </g>
        </g>
    </g>
</svg>