<?xml version="1.0" encoding="UTF-8"?>
<svg width="19px" height="16px" viewBox="0 0 19 16" version="1.1" xmlns="http://www.w3.org/2000/svg" xmlns:xlink="http://www.w3.org/1999/xlink">
    <!-- Generator: Sketch 58 (84663) - https://sketch.com -->
    <title>Shape</title>
    <desc>Created with Sketch.</desc>
    <g id="Symbols" stroke="none" stroke-width="1" fill="none" fill-rule="evenodd">
        <g id="Footer" transform="translate(-1474.000000, -431.000000)" fill="#B22D00" fill-rule="nonzero">
            <g id="social">
                <g transform="translate(1410.000000, 427.000000)">
                    <g id="instagram-social-network-logo-of-photo-camera" transform="translate(64.000000, 4.000000)">
                        <path d="M18.6716793,2.57379137 C18.4390703,1.35298625 17.6125825,0.452310726 16.61762,0.317955814 C14.261522,0.000195783787 11.8767892,-0.00146291883 9.50303963,0.000195783787 C7.12889779,-0.00146291883 4.74377272,0.000195783787 2.38767475,0.317955814 C1.39330059,0.452310726 0.567401268,1.35298625 0.334792245,2.57379137 C0.00372645147,4.31234867 0,6.21014143 0,8.00011851 C0,9.79009559 0,11.6876514 0.331065794,13.4259717 C0.563282559,14.6465399 1.38937801,15.5472154 2.38434055,15.6818073 C4.7402424,15.9998043 7.12517134,16.001463 9.49931318,15.9998043 C11.8738473,16.001463 14.2581878,15.9998043 16.6138936,15.6818073 C17.6082677,15.5474524 18.4349515,14.6467769 18.6675606,13.4259717 C18.9988225,11.6874144 19,9.78985863 19,8.00011851 C19,6.21014143 19.0027451,4.31234867 18.6716793,2.57379137 Z M7,12 C7,9.32409402 7,6.67615569 7,4 C9.00019482,5.33770328 10.987142,6.66641696 13,8.01236071 C10.9933762,9.34631832 9.0054549,10.6670412 7,12 Z" id="Shape"></path>
                    </g>
                </g>
            </g>
        </g>
    </g>
</svg>