<?xml version="1.0" encoding="UTF-8"?>
<svg width="28px" height="40px" viewBox="0 0 28 40" version="1.1" xmlns="http://www.w3.org/2000/svg" xmlns:xlink="http://www.w3.org/1999/xlink">
    <title>Shape 2</title>
    <g id="Site" stroke="none" stroke-width="1" fill="none" fill-rule="evenodd">
        <g id="banner-homewear-bijoux" transform="translate(-331.000000, -1379.000000)" fill="#FFFFFF" fill-rule="nonzero">
            <g id="Shape-2" transform="translate(331.000000, 1379.000000)">
                <path d="M27.7895676,25.7425095 L6.11416117,0.304057199 C5.80240942,-0.0602165811 5.25684385,-0.103582507 4.89313348,0.208652162 C4.72859783,0.347423125 4.62468058,0.538233201 4.59870127,0.746389647 L0.00902272814,33.8866305 C-0.0602554385,34.3636557 0.277475624,34.7973149 0.745103249,34.8667004 C0.970257291,34.9013931 1.2040711,34.8406808 1.38592629,34.7019099 L10.2102328,27.9715181 L13.5529043,39.3767567 C13.6914606,39.8364355 14.167748,40.0966311 14.6267159,39.9665333 L19.3895899,38.5614773 C19.8485577,38.4227064 20.1083508,37.9456812 19.9784543,37.4860023 L16.7050609,26.3322861 L27.0621468,27.1735851 C27.5384342,27.2082778 27.9541032,26.8526772 27.9974021,26.375652 C28.0147216,26.141476 27.9454434,25.9159732 27.7895676,25.7425095 Z M15.5121768,24.5025907 C15.0382166,24.4680484 14.6245785,24.8221071 14.5814912,25.2970639 C14.5728737,25.4006908 14.5814912,25.5043178 14.615961,25.6079447 L17.9853878,37.0932642 L14.9003372,38 L11.4619708,26.2728843 C11.3240914,25.8151986 10.8501311,25.5561313 10.3934058,25.6856649 C10.2899963,25.7115717 10.1952042,25.7633851 10.1176471,25.8238342 L2,32.015544 L6.02435369,3 L25,25.2711572 L15.5121768,24.5025907 Z" id="Shape"></path>
            </g>
        </g>
    </g>
</svg>