<?xml version="1.0" encoding="UTF-8"?>
<svg width="37px" height="32px" viewBox="0 0 37 32" version="1.1" xmlns="http://www.w3.org/2000/svg" xmlns:xlink="http://www.w3.org/1999/xlink">
    <!-- Generator: Sketch 58 (84663) - https://sketch.com -->
    <title>logo_header.Ideal</title>
    <desc>Created with Sketch.</desc>
    <g id="AnaPopova-Site" stroke="none" stroke-width="1" fill="none" fill-rule="evenodd">
        <g id="Cos._APL---" transform="translate(-709.000000, -1323.000000)" fill-rule="nonzero">
            <g id="We-accept." transform="translate(291.000000, 1276.000000)">
                <g id="we-accept">
                    <g id="logo_header.Ideal" transform="translate(418.000000, 47.000000)">
                        <polygon id="Path-2" fill="#FFFFFF" points="1 1 1 31 21.9432952 31 28.9236125 29.1140861 33.6755707 25.0209546 36 18.5855646 36 11.1466822 32.5227288 5.17229336 26.4609359 1.77997672 20.6217447 1.29336438"></polygon>
                        <path d="M1.5029333,1.50468738 L1.5029333,30.4953126 L19.094567,30.4953126 C29.7118352,30.4953126 35.4970667,25.5348048 35.4970667,15.9633867 C35.4970667,6.12032184 29.2328785,1.50468738 19.094567,1.50468738 L1.5029333,1.50468738 Z M19.094567,0 C34.6665604,0 37,10.0013287 37,15.9633867 C37,26.3048645 30.641436,32 19.094567,32 L0,32 L0,0 L19.094567,0 Z" id="Fill-4" fill="#0A0B09"></path>
                        <polygon id="Fill-5" fill="#0A0B09" points="4 28 10 28 10 18 4 18"></polygon>
                        <path d="M10,13.4975905 C10.0009533,14.913402 9.14882328,16.190334 7.84105788,16.7328028 C6.53329248,17.2752716 5.02751547,16.9764132 4.02604807,15.9756206 C3.02458068,14.974828 2.7247074,13.4692527 3.26629448,12.1611218 C3.80788156,10.8529909 5.08423882,10 6.50005049,10 C8.43209813,10 9.99869728,11.5655432 10,13.4975905" id="Fill-6" fill="#0A0B09"></path>
                        <path d="M12,11.4577856 L12,14.6947122 L13.0122491,14.6947122 C13.7267778,14.6947122 14.3627084,14.4960561 14.3627084,13.0587204 C14.3627084,11.6213848 13.6481797,11.4671341 13.0122491,11.4671341 L12,11.4577856 Z M28.8890779,9.84750219 L30.5253488,9.84750219 L30.5253488,14.6947122 L32.9523647,14.6947122 C32.287853,5.90008764 25.2497448,4 18.8308949,4 L12.0023818,4 L12.0023818,9.84282793 L13.0122491,9.84282793 C14.8557332,9.84282793 16.001361,11.0698218 16.001361,13.0423605 C16.001361,15.0780018 14.8843144,16.29331 13.0122491,16.29331 L12.0023818,16.29331 L12.0023818,28 L18.8308949,28 C29.2463423,28 32.8832936,23.2532866 33,16.29331 L28.8890779,16.29331 L28.8890779,9.84750219 Z M24.325621,13.4490213 L25.5165022,13.4490213 L24.9734604,11.6237219 L24.8758081,11.6237219 L24.325621,13.4490213 Z M21.7699898,16.3026585 L23.753998,9.84750219 L26.0833617,9.84750219 L28.0649881,16.3026585 L26.3620279,16.3026585 L25.9904729,15.0546304 L23.8468867,15.0546304 L23.4753317,16.3026585 L21.7699898,16.3026585 Z M20.9840082,14.6947122 L20.9840082,16.3003214 L16.9350119,16.3003214 L16.9350119,9.84983932 L20.8530112,9.84983932 L20.8530112,11.4554484 L18.5808098,11.4554484 L18.5808098,12.2033304 L20.7243961,12.2033304 L20.7243961,13.8089395 L18.5808098,13.8089395 L18.5808098,14.6947122 L20.9840082,14.6947122 Z" id="Fill-7" fill="#D50172"></path>
                    </g>
                </g>
            </g>
        </g>
    </g>
</svg>