<?xml version="1.0" encoding="UTF-8"?>
<svg width="82px" height="26px" viewBox="0 0 82 26" version="1.1" xmlns="http://www.w3.org/2000/svg" xmlns:xlink="http://www.w3.org/1999/xlink">
    <!-- Generator: Sketch 58 (84663) - https://sketch.com -->
    <title>visa</title>
    <desc>Created with Sketch.</desc>
    <g id="AnaPopova-Site" stroke="none" stroke-width="1" fill="none" fill-rule="evenodd">
        <g id="Cos._APL---" transform="translate(-292.000000, -1328.000000)" fill-rule="nonzero">
            <g id="We-accept." transform="translate(291.000000, 1276.000000)">
                <g id="we-accept">
                    <g id="visa" transform="translate(1.000000, 52.000000)">
                        <path d="M33.7380965,0 L29.6414091,25.9478889 L36.1894504,25.9478889 L40.2836198,0 C40.2836198,0 33.7380965,0 33.7380965,0 Z M53.4893725,10.5697169 C51.2011251,9.41957176 49.7983531,8.64331636 49.7983531,7.46697333 C49.8263302,6.39741526 50.9845823,5.30165927 53.5710656,5.30165927 C55.6984446,5.24727014 57.262085,5.75613603 58.4483142,6.26243908 L59.0425479,6.53239144 L59.9327793,1.1034445 C58.6393978,0.59457861 56.5886761,0.0338864246 54.0556291,0.0338864246 C47.589281,0.0338864246 43.0360073,3.45584579 43.0077504,8.35001369 C42.9543141,11.9616231 46.2676426,13.9657631 48.7472533,15.1680193 C51.2803003,16.4013143 52.1425547,17.20092 52.1425547,18.296676 C52.1145776,19.9790373 50.0943509,20.7552927 48.2092536,20.7552927 C45.5973112,20.7552927 44.1942594,20.3554898 42.0643625,19.4180603 L41.2021081,19.0182575 L40.2864175,24.6602048 C41.8245987,25.3561579 44.6533637,25.9686764 47.5895608,26 C54.4615769,26 58.9331574,22.6298669 58.9893914,17.4139204 C59.0117731,14.5526532 57.2646029,12.3611412 53.4893725,10.5697169 Z M76.7198811,0.0803022836 L71.6537871,0.0803022836 C70.0926647,0.0803022836 68.9064355,0.537341876 68.2305087,2.1678769 L58.5039886,25.9478889 L65.3760047,25.9478889 L67.2686558,20.7994305 L74.9570438,20.7994305 L75.9390402,25.9686764 L82,25.9686764 L76.7198811,0.0803022836 Z M69.1744561,15.6037172 C69.3070676,15.6168008 71.8121375,7.19929905 71.8121375,7.19929905 L73.8069051,15.6037172 C73.8069051,15.6037172 70.4678377,15.6037172 69.1744561,15.6037172 Z M24.1699269,0 L17.7544971,17.6291988 L17.0556291,14.1525656 C15.8693999,10.1411533 12.1504034,5.78204918 8,3.61673512 L13.8746323,25.9219758 L20.8028824,25.9219758 L31.098177,0.00284759871 L24.1699269,0.00284759871 L24.1699269,0 Z" id="Shape" fill="#2394BC"></path>
                        <path d="M14.7535481,3.4940644 C14.2457164,1.42513995 12.6261681,0.029777266 10.426606,0 L0.106283747,0 L0,0.502044706 C8.05056753,2.58168897 14.8078267,8.98082344 17,15 L14.7535481,3.4940644 Z" id="Path" fill="#EFC75E"></path>
                    </g>
                </g>
            </g>
        </g>
    </g>
</svg>