<?xml version="1.0" encoding="UTF-8"?>
<svg width="21px" height="21px" viewBox="0 0 21 21" version="1.1" xmlns="http://www.w3.org/2000/svg" xmlns:xlink="http://www.w3.org/1999/xlink">
    <!-- Generator: Sketch 58 (84663) - https://sketch.com -->
    <title>Shape</title>
    <desc>Created with Sketch.</desc>
    <g id="Symbols" stroke="none" stroke-width="1" fill="none" fill-rule="evenodd">
        <g id="Footer" transform="translate(-1609.000000, -428.000000)" fill="#B22D00" fill-rule="nonzero">
            <g id="social">
                <g transform="translate(1410.000000, 427.000000)">
                    <g id="twitter-logo-button" transform="translate(199.000000, 1.000000)">
                        <path d="M10.5,0 C4.71032385,0 0,4.71032385 0,10.5 C0,16.2892532 4.71032385,21 10.5,21 C16.2892532,21 21,16.2892532 21,10.5 C21,4.71032385 16.2900991,0 10.5,0 Z M14.7728105,7.48950555 C14.7775504,7.598206 14.7801357,7.7077902 14.7801357,7.8173744 C14.7801357,11.1539481 12.304212,15 7.77421092,15 C6.38371216,15 5.08930303,14.5833149 4,13.8665989 C4.19261015,13.8900181 4.38866746,13.9019487 4.58731014,13.9019487 C5.74124744,13.9019487 6.80254228,13.4980779 7.64537326,12.8211303 C6.5681353,12.8008042 5.65851557,12.070832 5.34525477,11.0673413 C5.49520629,11.0965048 5.64989766,11.112854 5.8080362,11.112854 C6.03253259,11.112854 6.25056555,11.0828068 6.45696434,11.0249216 C5.33060433,10.7933808 4.48217171,9.77309885 4.48217171,8.54911405 C4.48217171,8.53850912 4.48217171,8.52746233 4.48260261,8.51729928 C4.8143919,8.70597853 5.19401056,8.81998144 5.59732845,8.83279572 C4.93719703,8.3807609 4.50242379,7.60748531 4.50242379,6.73169546 C4.50242379,6.26861385 4.62350533,5.83469577 4.83550576,5.461756 C6.0493375,6.98974857 7.86426802,7.99456498 9.91015835,8.1006142 C9.86793063,7.91546993 9.84681676,7.72325571 9.84681676,7.52485529 C9.84681676,6.13074986 10.9490466,5 12.308521,5 C13.0169126,5 13.6559302,5.30665901 14.1057848,5.79713667 C14.6672412,5.6840175 15.1929333,5.47457028 15.6699343,5.18426053 C15.4846494,5.77415934 15.095551,6.26861385 14.585802,6.58145906 C15.0843477,6.52048076 15.560056,6.385268 16,6.18421634 C15.6716579,6.68971764 15.2541204,7.13468252 14.7728105,7.48950555 Z" id="Shape"></path>
                    </g>
                </g>
            </g>
        </g>
    </g>
</svg>