<?xml version="1.0" encoding="UTF-8"?>
<svg width="59px" height="36px" viewBox="0 0 59 36" version="1.1" xmlns="http://www.w3.org/2000/svg" xmlns:xlink="http://www.w3.org/1999/xlink">
    <!-- Generator: Sketch 58 (84663) - https://sketch.com -->
    <title>logo.Bancontact</title>
    <desc>Created with Sketch.</desc>
    <g id="AnaPopova-Site" stroke="none" stroke-width="1" fill="none" fill-rule="evenodd">
        <g id="Cos._APL---" transform="translate(-609.000000, -1319.000000)" fill-rule="nonzero">
            <g id="We-accept." transform="translate(291.000000, 1276.000000)">
                <g id="we-accept">
                    <g id="logo.Bancontact" transform="translate(318.000000, 43.000000)">
                        <path d="M52,6 L49.2753108,6 L36.6678508,6 L33.9431616,6 L32.0959147,8.17741935 L26.1385435,15.2177419 L26.1385435,15.2177419 L24.2912966,17.3951613 L21.5666075,17.3951613 L9.19005329,17.3951613 L6.46536412,17.3951613 L8.26642984,15.1935484 L9.12078153,14.1532258 L10.9218472,11.9516129 L8.19715808,11.9516129 L4.68738899,11.9516129 L2.72468917,11.9516129 C1.22380107,11.9516129 0,13.2822581 0,14.8790323 L0,14.8790323 L0,20.5403226 L0,21.0725806 C0,22.6935484 1.22380107,24 2.72468917,24 L3.48667851,24 L32.1190053,24 L34.1740675,24 C35.6749556,24 37.7300178,23.0322581 38.722913,21.8225806 L43.4795737,16.1612903 L52,6 Z" id="Fill-4" fill="#005697"></path>
                        <path d="M56.2753108,0.0241935484 C57.7761989,0.0241935484 59,1.35483871 59,2.9516129 L59,9.14516129 C59,10.766129 57.7761989,12.0725806 56.2753108,12.0725806 L54.7975133,12.0725806 L50.8028419,12.0725806 L48.0781528,12.0725806 L49.9023091,9.89516129 L49.9023091,9.89516129 L50.8028419,8.80645161 L52.6269982,6.62903226 L34.5701599,6.62903226 L24.9413854,18 L7,18 L19.8614565,2.75806452 L20.3463588,2.17741935 C21.3623446,0.991935484 23.4174067,0 24.9182948,0 L25.5417407,0 L56.2753108,0 L56.2753108,0.0241935484 Z" id="Fill-6" fill="#FBD500"></path>
                        <path d="M6.21052632,33.1721311 C6.21052632,32.7540984 6.11713494,32.4098361 5.9303522,32.1147541 C5.74356945,31.8196721 5.51009102,31.5737705 5.20656905,31.4262295 C5.51009102,31.2786885 5.74356945,31.0327869 5.90700435,30.7377049 C6.07043926,30.4180328 6.16383063,30.0737705 6.16383063,29.704918 L6.16383063,29.4836066 C6.16383063,29.0163934 6.07043926,28.6229508 5.90700435,28.3032787 C5.74356945,27.9836066 5.48674317,27.7377049 5.18322121,27.5409836 C4.87969925,27.3442623 4.50613376,27.2213115 4.06252473,27.1229508 C3.61891571,27.0491803 3.15195884,27 2.61495845,27 C2.4281757,27 2.24139296,27 2.05461021,27 C1.86782746,27 1.68104472,27.0245902 1.49426197,27.0245902 C1.30747922,27.0245902 1.14404432,27.0491803 0.980609418,27.0737705 C0.817174515,27.0983607 0.700435299,27.0983607 0.607043926,27.1229508 C0.396913336,27.1721311 0.233478433,27.2213115 0.14008706,27.3442623 C0.0466956866,27.442623 0,27.6393443 0,27.9098361 L0,35.0901639 C0,35.3606557 0.0466956866,35.5327869 0.14008706,35.6557377 C0.233478433,35.7540984 0.396913336,35.8278689 0.607043926,35.8770492 C0.723783142,35.9016393 0.863870202,35.9262295 1.00395726,35.9262295 C1.16739216,35.9508197 1.33082707,35.9508197 1.51760981,35.9754098 C1.70439256,35.9754098 1.89117531,36 2.07795805,36 C2.2647408,36 2.47487139,36 2.66165414,36 C3.15195884,36 3.61891571,35.9508197 4.03917689,35.8770492 C4.45943807,35.8032787 4.8563514,35.6557377 5.15987337,35.4590164 C5.48674317,35.2622951 5.72022161,34.9918033 5.9303522,34.647541 C6.11713494,34.3032787 6.21052632,33.8606557 6.21052632,33.3442623 L6.21052632,33.1721311 L6.21052632,33.1721311 Z M4.29600317,29.7786885 C4.29600317,29.9016393 4.27265532,30.0245902 4.24930748,30.147541 C4.20261179,30.2704918 4.15591611,30.3688525 4.06252473,30.442623 C3.96913336,30.5163934 3.85239414,30.5901639 3.71230708,30.6393443 C3.57222002,30.6885246 3.38543728,30.7131148 3.15195884,30.7131148 L1.89117531,30.7131148 L1.89117531,28.6721311 C1.93787099,28.6721311 1.98456668,28.6721311 2.05461021,28.6721311 C2.12465374,28.6721311 2.21804511,28.6721311 2.31143649,28.6721311 L2.56826276,28.6721311 L2.75504551,28.6721311 C3.33874159,28.6721311 3.73565493,28.7459016 3.96913336,28.8934426 C4.20261179,29.0409836 4.31935101,29.2868852 4.31935101,29.6065574 L4.31935101,29.7786885 L4.29600317,29.7786885 Z M4.34269885,33.295082 C4.34269885,33.6147541 4.22595964,33.8852459 4.01582905,34.057377 C3.80569846,34.2295082 3.38543728,34.3278689 2.82508904,34.3278689 L2.63830629,34.3278689 C2.54491492,34.3278689 2.45152355,34.3278689 2.35813217,34.3278689 C2.2647408,34.3278689 2.17134943,34.3278689 2.07795805,34.3278689 L1.89117531,34.3278689 L1.89117531,32.1147541 L3.15195884,32.1147541 C3.59556787,32.1147541 3.92243767,32.2131148 4.08587258,32.4344262 C4.24930748,32.6557377 4.34269885,32.9016393 4.34269885,33.1721311 L4.34269885,33.295082 Z M12.3743569,31.4262295 C12.3743569,30.9836066 12.3043134,30.6147541 12.1875742,30.3196721 C12.070835,30.0245902 11.8840522,29.7786885 11.6739216,29.5819672 C11.4404432,29.3852459 11.1836169,29.2377049 10.8567471,29.1639344 C10.5298773,29.0655738 10.1563118,29.0163934 9.7593985,29.0163934 C9.385833,29.0163934 9.01226751,29.0409836 8.66204986,29.0901639 C8.31183221,29.1393443 8.03165809,29.1885246 7.8215275,29.2622951 C7.68144044,29.3114754 7.61139691,29.3852459 7.61139691,29.5327869 L7.61139691,30.4918033 C7.61139691,30.5655738 7.63474476,30.6147541 7.6580926,30.6639344 C7.70478829,30.6885246 7.75148397,30.7131148 7.79817966,30.7131148 L7.84487535,30.7131148 C7.93826672,30.7131148 8.05500594,30.6885246 8.17174515,30.6885246 C8.31183221,30.6885246 8.45191927,30.6639344 8.63870202,30.6639344 C8.80213692,30.6639344 8.98891967,30.6393443 9.17570241,30.6393443 C9.36248516,30.6393443 9.54926791,30.6393443 9.71270281,30.6393443 C9.96952909,30.6393443 10.1796597,30.6885246 10.3197467,30.7868852 C10.4598338,30.8852459 10.5532252,31.1065574 10.5532252,31.4508197 L10.5532252,31.8688525 L9.94618124,31.8688525 C8.98891967,31.8688525 8.26513653,32.0409836 7.84487535,32.3360656 C7.40126632,32.6557377 7.19113573,33.1721311 7.19113573,33.8606557 L7.19113573,33.9590164 C7.19113573,34.352459 7.23783142,34.6721311 7.35457064,34.9180328 C7.47130985,35.1885246 7.61139691,35.3852459 7.79817966,35.557377 C7.98496241,35.704918 8.17174515,35.8278689 8.40522359,35.9016393 C8.63870202,35.9754098 8.87218045,36 9.12900673,36 C9.45587653,36 9.7593985,35.9508197 9.99287693,35.852459 C10.2263554,35.7540984 10.4598338,35.6311475 10.6933122,35.4590164 L10.6933122,35.6557377 C10.6933122,35.7295082 10.7166601,35.7786885 10.7633558,35.8278689 C10.8100514,35.8770492 10.8567471,35.9016393 10.9267907,35.9016393 L12.1875742,35.9016393 C12.2576177,35.9016393 12.3043134,35.8770492 12.3510091,35.8278689 C12.3977048,35.7786885 12.4210526,35.7295082 12.4210526,35.6557377 L12.4210526,31.4262295 L12.3743569,31.4262295 Z M10.576573,34.3032787 C10.436486,34.3770492 10.2963989,34.4262295 10.132964,34.4754098 C9.96952909,34.5245902 9.80609418,34.5491803 9.64265928,34.5491803 C9.40918085,34.5491803 9.2223981,34.5245902 9.10565888,34.4508197 C8.98891967,34.3770492 8.94222398,34.2295082 8.94222398,33.9590164 L8.94222398,33.8606557 C8.94222398,33.7131148 8.96557182,33.5901639 8.98891967,33.4918033 C9.01226751,33.3934426 9.08231104,33.295082 9.15235457,33.2213115 C9.2223981,33.147541 9.33913732,33.0983607 9.45587653,33.0491803 C9.57261575,33.0245902 9.73605065,33 9.94618124,33 L10.576573,33 L10.576573,34.3032787 Z M19.2619707,35.6557377 L19.2619707,31.7213115 C19.2619707,31.352459 19.2386229,31.0081967 19.1685793,30.6639344 C19.1218837,30.3442623 19.0051444,30.0491803 18.8650574,29.8032787 C18.7249703,29.557377 18.5148397,29.3606557 18.2580135,29.2377049 C18.0011872,29.0901639 17.6743174,29.0163934 17.2540562,29.0163934 C16.9038385,29.0163934 16.5769687,29.0655738 16.2967946,29.1639344 C16.0166205,29.2622951 15.7364464,29.4098361 15.4095766,29.6557377 L15.4095766,29.3606557 C15.4095766,29.2868852 15.3862287,29.2377049 15.339533,29.1885246 C15.2928374,29.1393443 15.2461417,29.1147541 15.1760981,29.1147541 L13.9153146,29.1147541 C13.8452711,29.1147541 13.7985754,29.1393443 13.7518797,29.1885246 C13.705184,29.2377049 13.6818362,29.2868852 13.6818362,29.3606557 L13.6818362,35.6557377 C13.6818362,35.7295082 13.705184,35.7786885 13.7518797,35.8278689 C13.7985754,35.8770492 13.8452711,35.9016393 13.9153146,35.9016393 L15.2694895,35.9016393 C15.339533,35.9016393 15.3862287,35.8770492 15.4329244,35.8278689 C15.4796201,35.7786885 15.5029679,35.7295082 15.5029679,35.6557377 L15.5029679,31.0081967 C15.6897507,30.9098361 15.8765334,30.8114754 16.0633162,30.7377049 C16.2267511,30.6639344 16.4135338,30.6393443 16.5769687,30.6393443 C16.7404036,30.6393443 16.8804907,30.6639344 16.9972299,30.6885246 C17.1139691,30.7131148 17.1840127,30.7868852 17.2540562,30.8606557 C17.3240997,30.9590164 17.3474476,31.057377 17.3707954,31.204918 C17.3941433,31.352459 17.3941433,31.5245902 17.3941433,31.7213115 L17.3941433,35.6557377 C17.3941433,35.7295082 17.4174911,35.7786885 17.4641868,35.8278689 C17.5108825,35.8770492 17.5575782,35.9016393 17.6276217,35.9016393 L18.9817966,35.9016393 C19.0518401,35.9016393 19.0985358,35.8770492 19.1452315,35.8278689 C19.215275,35.7786885 19.2619707,35.704918 19.2619707,35.6557377 Z M24.7720617,35.557377 L24.7720617,34.5 C24.7720617,34.4262295 24.7487139,34.3770492 24.7020182,34.352459 C24.6553225,34.3278689 24.6086268,34.3032787 24.5619311,34.3032787 L24.5385833,34.3032787 C24.3284527,34.3278689 24.1183221,34.352459 23.9315394,34.352459 C23.7447566,34.3770492 23.4879304,34.3770492 23.1610605,34.3770492 C23.0443213,34.3770492 22.9042343,34.352459 22.8108429,34.3032787 C22.6941037,34.2540984 22.6007123,34.1803279 22.5073209,34.0819672 C22.4139296,33.9836066 22.3672339,33.8360656 22.3205382,33.6639344 C22.2738425,33.4918033 22.2504947,33.2704918 22.2504947,33 L22.2504947,32.0163934 C22.2504947,31.7459016 22.2738425,31.5245902 22.3205382,31.352459 C22.3672339,31.1803279 22.4372774,31.0327869 22.5073209,30.9344262 C22.6007123,30.8360656 22.6941037,30.7622951 22.8108429,30.7131148 C22.9275821,30.6639344 23.0443213,30.6393443 23.1610605,30.6393443 C23.4879304,30.6393443 23.7447566,30.6393443 23.9315394,30.6639344 C24.1183221,30.6885246 24.3284527,30.6885246 24.5385833,30.7131148 L24.5619311,30.7131148 C24.6319747,30.7131148 24.6786704,30.6885246 24.7020182,30.6639344 C24.7487139,30.6393443 24.7720617,30.5901639 24.7720617,30.5163934 L24.7720617,29.4590164 C24.7720617,29.3606557 24.7487139,29.3114754 24.725366,29.2868852 C24.6786704,29.2622951 24.6319747,29.2131148 24.5385833,29.1885246 C24.3751484,29.1393443 24.1883657,29.1147541 23.9315394,29.0655738 C23.6747131,29.0163934 23.394539,29.0163934 23.0443213,29.0163934 C22.2504947,29.0163934 21.6201029,29.2622951 21.1297982,29.7786885 C20.6628413,30.295082 20.406015,31.0327869 20.406015,32.0163934 L20.406015,33 C20.406015,33.9590164 20.6394935,34.7213115 21.1297982,35.2377049 C21.596755,35.7540984 22.2504947,36 23.0443213,36 C23.3711911,36 23.6747131,35.9754098 23.9315394,35.9508197 C24.1883657,35.9016393 24.3751484,35.8770492 24.5385833,35.8278689 C24.6319747,35.8032787 24.6786704,35.7786885 24.725366,35.7295082 C24.7720617,35.704918 24.7720617,35.6311475 24.7720617,35.557377 Z M31.0292837,32.0901639 C31.0292837,31.6229508 30.9592402,31.1803279 30.842501,30.8114754 C30.7257618,30.442623 30.538979,30.1229508 30.3055006,29.852459 C30.0720222,29.5819672 29.7685002,29.3852459 29.4182825,29.2377049 C29.0680649,29.0901639 28.6711516,29.0163934 28.2041947,29.0163934 C27.7372378,29.0163934 27.3403245,29.0901639 26.9901068,29.2377049 C26.6398892,29.3852459 26.3363672,29.5819672 26.1028888,29.852459 C25.8694104,30.1229508 25.6826276,30.442623 25.5658884,30.8114754 C25.4491492,31.1803279 25.3791057,31.6229508 25.3791057,32.0901639 L25.3791057,32.9262295 C25.3791057,33.3934426 25.4491492,33.8360656 25.5658884,34.204918 C25.6826276,34.5737705 25.8694104,34.8934426 26.1028888,35.1639344 C26.3363672,35.4344262 26.6398892,35.6311475 26.9901068,35.7786885 C27.3403245,35.9262295 27.7372378,36 28.2041947,36 C28.6711516,36 29.0680649,35.9262295 29.4182825,35.7786885 C29.7685002,35.6311475 30.0720222,35.4344262 30.3055006,35.1639344 C30.538979,34.8934426 30.7257618,34.5737705 30.842501,34.204918 C30.9592402,33.8360656 31.0292837,33.3934426 31.0292837,32.9262295 L31.0292837,32.0901639 Z M29.208152,32.9262295 C29.208152,33.8852459 28.8812822,34.3770492 28.2041947,34.3770492 C27.8773249,34.3770492 27.6204986,34.2540984 27.4570637,34.0081967 C27.2936288,33.7622951 27.2002374,33.3934426 27.2002374,32.9262295 L27.2002374,32.0901639 C27.2002374,31.5983607 27.2936288,31.2540984 27.4570637,31.0081967 C27.6204986,30.7622951 27.8773249,30.6393443 28.2041947,30.6393443 C28.8579343,30.6393443 29.208152,31.1311475 29.208152,32.0901639 L29.208152,32.9262295 Z M37.7067669,35.6557377 L37.7067669,31.7213115 C37.7067669,31.352459 37.6834191,31.0081967 37.6133755,30.6639344 C37.5666799,30.3442623 37.4499406,30.0491803 37.3098536,29.8032787 C37.1697665,29.557377 36.9596359,29.3606557 36.7028097,29.2377049 C36.4459834,29.0901639 36.1191136,29.0163934 35.6988524,29.0163934 C35.3486347,29.0163934 35.0217649,29.0655738 34.7415908,29.1639344 C34.4614167,29.2622951 34.1812426,29.4098361 33.8543728,29.6557377 L33.8543728,29.3606557 C33.8543728,29.2868852 33.8310249,29.2377049 33.7843292,29.1885246 C33.7376336,29.1393443 33.6909379,29.1147541 33.6208943,29.1147541 L32.3601108,29.1147541 C32.2900673,29.1147541 32.2433716,29.1393443 32.1966759,29.1885246 C32.1499802,29.2377049 32.1266324,29.2868852 32.1266324,29.3606557 L32.1266324,35.6557377 C32.1266324,35.7295082 32.1499802,35.7786885 32.1966759,35.8278689 C32.2433716,35.8770492 32.2900673,35.9016393 32.3601108,35.9016393 L33.7142857,35.9016393 C33.7843292,35.9016393 33.8310249,35.8770492 33.8777206,35.8278689 C33.9244163,35.7786885 33.9477641,35.7295082 33.9477641,35.6557377 L33.9477641,31.0081967 C34.1345469,30.9098361 34.3213296,30.8114754 34.5081124,30.7377049 C34.6715473,30.6639344 34.85833,30.6393443 35.0217649,30.6393443 C35.1851998,30.6393443 35.3252869,30.6639344 35.4420261,30.6885246 C35.5587653,30.7131148 35.6288089,30.7868852 35.6988524,30.8606557 C35.7688959,30.9590164 35.7922438,31.057377 35.8155916,31.204918 C35.8389395,31.352459 35.8389395,31.5245902 35.8389395,31.7213115 L35.8389395,35.6557377 C35.8389395,35.7295082 35.8622873,35.7786885 35.908983,35.8278689 C35.9556787,35.8770492 36.0023744,35.9016393 36.0724179,35.9016393 L37.4265928,35.9016393 C37.4966363,35.9016393 37.543332,35.8770492 37.5900277,35.8278689 C37.6834191,35.7786885 37.7067669,35.704918 37.7067669,35.6557377 Z M42.609814,35.6803279 L42.609814,34.7704918 C42.609814,34.647541 42.5397705,34.5737705 42.3763356,34.5737705 L41.8393352,34.5737705 C41.6759003,34.5737705 41.5591611,34.5491803 41.5358132,34.4754098 C41.4891175,34.4016393 41.4891175,34.2540984 41.4891175,34.0081967 L41.4891175,30.5655738 L42.3996834,30.5655738 C42.4697269,30.5655738 42.5164226,30.5409836 42.5631183,30.4918033 C42.609814,30.442623 42.6331619,30.3934426 42.6331619,30.3196721 L42.6331619,29.3606557 C42.6331619,29.2868852 42.609814,29.2377049 42.5631183,29.1885246 C42.5164226,29.1393443 42.4697269,29.1147541 42.3996834,29.1147541 L41.4891175,29.1147541 L41.4891175,27.8606557 C41.4891175,27.7868852 41.4657697,27.7377049 41.4424218,27.7131148 C41.3957262,27.6885246 41.3490305,27.6639344 41.3023348,27.6639344 L41.2789869,27.6639344 L39.924812,27.9098361 C39.8547685,27.9344262 39.8080728,27.9590164 39.7613771,27.9836066 C39.7146814,28.0327869 39.6913336,28.0819672 39.6913336,28.1311475 L39.6913336,29.0901639 L38.7807677,29.0901639 C38.7107242,29.0901639 38.6640285,29.1147541 38.6173328,29.1639344 C38.5706371,29.2131148 38.5472893,29.2622951 38.5472893,29.3360656 L38.5472893,30.1229508 C38.5472893,30.1967213 38.5706371,30.2459016 38.6173328,30.295082 C38.6640285,30.3442623 38.7107242,30.3688525 38.7807677,30.3934426 L39.6913336,30.5409836 L39.6913336,33.9836066 C39.6913336,34.4016393 39.7380293,34.7459016 39.8080728,35.0163934 C39.9014642,35.2868852 40.0182034,35.4836066 40.1582905,35.6311475 C40.3217254,35.7786885 40.5085081,35.8770492 40.7419865,35.9262295 C40.975465,35.9754098 41.2556391,36 41.5591611,36 C41.722596,36 41.862683,36 42.0027701,35.9754098 C42.1195093,35.9508197 42.2829442,35.9262295 42.4463791,35.9016393 C42.5397705,35.8770492 42.609814,35.8032787 42.609814,35.6803279 Z M48.6102097,31.4262295 C48.6102097,30.9836066 48.5401662,30.6147541 48.423427,30.3196721 C48.3066878,30.0245902 48.119905,29.7786885 47.9097744,29.5819672 C47.676296,29.3852459 47.4194697,29.2377049 47.0925999,29.1639344 C46.7657301,29.0655738 46.3921646,29.0163934 45.9952513,29.0163934 C45.6216858,29.0163934 45.2481203,29.0409836 44.8979027,29.0901639 C44.547685,29.1393443 44.2675109,29.1885246 44.0573803,29.2622951 C43.9172932,29.3114754 43.8472497,29.3852459 43.8472497,29.5327869 L43.8472497,30.4918033 C43.8472497,30.5655738 43.8705975,30.6147541 43.8939454,30.6639344 C43.9406411,30.6885246 43.9873368,30.7131148 44.0340324,30.7131148 L44.0807281,30.7131148 C44.1741195,30.7131148 44.2908587,30.6885246 44.4075979,30.6885246 C44.5243372,30.6885246 44.6877721,30.6639344 44.851207,30.6639344 C45.0146419,30.6639344 45.2014246,30.6393443 45.3882074,30.6393443 C45.5749901,30.6393443 45.7617729,30.6393443 45.9252078,30.6393443 C46.182034,30.6393443 46.3921646,30.6885246 46.5322517,30.7868852 C46.6723387,30.8852459 46.7657301,31.1065574 46.7657301,31.4508197 L46.7657301,31.8688525 L46.1586862,31.8688525 C45.2014246,31.8688525 44.4776415,32.0409836 44.0573803,32.3360656 C43.6137713,32.6557377 43.4036407,33.1721311 43.4036407,33.8606557 L43.4036407,33.9590164 C43.4036407,34.352459 43.4503364,34.6721311 43.5670756,34.9180328 C43.6838148,35.1885246 43.8239019,35.3852459 44.0106846,35.557377 C44.1974674,35.704918 44.3842501,35.8278689 44.6177285,35.9016393 C44.851207,35.9754098 45.0846854,36 45.3415117,36 C45.6683815,36 45.9719034,35.9508197 46.2053819,35.852459 C46.4388603,35.7540984 46.6723387,35.6311475 46.9058172,35.4590164 L46.9058172,35.6557377 C46.9058172,35.7295082 46.929165,35.7786885 46.9758607,35.8278689 C47.0225564,35.8770492 47.0692521,35.9016393 47.1392956,35.9016393 L48.4000791,35.9016393 C48.4701227,35.9016393 48.5168184,35.8770492 48.563514,35.8278689 C48.6102097,35.7786885 48.6335576,35.7295082 48.6335576,35.6557377 L48.6335576,31.4262295 L48.6102097,31.4262295 Z M46.8357736,34.3032787 C46.6956866,34.3770492 46.5555995,34.4262295 46.3921646,34.4754098 C46.2287297,34.5245902 46.0652948,34.5491803 45.9018599,34.5491803 C45.6683815,34.5491803 45.4815987,34.5245902 45.3648595,34.4508197 C45.2481203,34.3770492 45.2014246,34.2295082 45.2014246,33.9590164 L45.2014246,33.8606557 C45.2014246,33.7131148 45.2247725,33.5901639 45.2481203,33.4918033 C45.2714681,33.3934426 45.3415117,33.295082 45.4115552,33.2213115 C45.4815987,33.147541 45.598338,33.0983607 45.7150772,33.0491803 C45.8318164,33.0245902 45.9952513,33 46.2053819,33 L46.8357736,33 L46.8357736,34.3032787 L46.8357736,34.3032787 Z M54.1436486,35.557377 L54.1436486,34.5 C54.1436486,34.4262295 54.1203008,34.3770492 54.0736051,34.352459 C54.0269094,34.3278689 53.9802137,34.3032787 53.933518,34.3032787 L53.9101702,34.3032787 C53.7000396,34.3278689 53.489909,34.352459 53.3031262,34.352459 C53.1163435,34.3770492 52.8595172,34.3770492 52.5326474,34.3770492 C52.4159082,34.3770492 52.2758211,34.352459 52.1824298,34.3032787 C52.0656905,34.2540984 51.9722992,34.1803279 51.8789078,34.0819672 C51.7855164,33.9836066 51.7388207,33.8360656 51.692125,33.6639344 C51.6454294,33.4918033 51.6220815,33.2704918 51.6220815,33 L51.6220815,32.0163934 C51.6220815,31.7459016 51.6454294,31.5245902 51.692125,31.352459 C51.7388207,31.1803279 51.8088643,31.0327869 51.8789078,30.9344262 C51.9722992,30.8360656 52.0656905,30.7622951 52.1824298,30.7131148 C52.299169,30.6639344 52.4159082,30.6393443 52.5326474,30.6393443 C52.8595172,30.6393443 53.1163435,30.6393443 53.3031262,30.6639344 C53.489909,30.6885246 53.7000396,30.6885246 53.9101702,30.7131148 L53.933518,30.7131148 C54.0035615,30.7131148 54.0502572,30.6885246 54.0736051,30.6639344 C54.1203008,30.6393443 54.1436486,30.5901639 54.1436486,30.5163934 L54.1436486,29.4590164 C54.1436486,29.3606557 54.1203008,29.3114754 54.0969529,29.2868852 C54.0502572,29.2622951 54.0035615,29.2131148 53.9101702,29.1885246 C53.7467353,29.1393443 53.5599525,29.1147541 53.3031262,29.0655738 C53.0463,29.0163934 52.7661258,29.0163934 52.4159082,29.0163934 C51.6220815,29.0163934 50.9916898,29.2622951 50.501385,29.7786885 C50.0344282,30.295082 49.7776019,31.0327869 49.7776019,32.0163934 L49.7776019,33 C49.7776019,33.9590164 50.0110803,34.7213115 50.501385,35.2377049 C50.9683419,35.7540984 51.6220815,36 52.4159082,36 C52.742778,36 53.0463,35.9754098 53.3031262,35.9508197 C53.5599525,35.9016393 53.7700831,35.8770492 53.9101702,35.8278689 C54.0035615,35.8032787 54.0502572,35.7786885 54.0969529,35.7295082 C54.1436486,35.704918 54.1436486,35.6311475 54.1436486,35.557377 Z M59,35.6803279 L59,34.7704918 C59,34.647541 58.9299565,34.5737705 58.7665216,34.5737705 L58.2061733,34.5737705 C58.0427384,34.5737705 57.9259992,34.5491803 57.9026514,34.4754098 C57.8559557,34.4016393 57.8559557,34.2540984 57.8559557,34.0081967 L57.8559557,30.5655738 L58.7665216,30.5655738 C58.8365651,30.5655738 58.8832608,30.5409836 58.9299565,30.4918033 C58.9766522,30.442623 59,30.3934426 59,30.3196721 L59,29.3606557 C59,29.2868852 58.9766522,29.2377049 58.9299565,29.1885246 C58.8832608,29.1393443 58.8365651,29.1147541 58.7665216,29.1147541 L57.8559557,29.1147541 L57.8559557,27.8606557 C57.8559557,27.7868852 57.8326078,27.7377049 57.80926,27.7131148 C57.7625643,27.6885246 57.7158686,27.6639344 57.6691729,27.6639344 L57.6458251,27.6639344 L56.2916502,27.9098361 C56.2216066,27.9344262 56.174911,27.9590164 56.1282153,27.9836066 C56.0815196,28.0327869 56.0581717,28.0819672 56.0581717,28.1311475 L56.0581717,29.0901639 L55.1476059,29.0901639 C55.0775623,29.0901639 55.0308666,29.1147541 54.984171,29.1639344 C54.9374753,29.2131148 54.9141274,29.2622951 54.9141274,29.3360656 L54.9141274,30.1229508 C54.9141274,30.1967213 54.9374753,30.2459016 54.984171,30.295082 C55.0308666,30.3442623 55.0775623,30.3688525 55.1476059,30.3934426 L56.0581717,30.5409836 L56.0581717,33.9836066 C56.0581717,34.4016393 56.1048674,34.7459016 56.174911,35.0163934 C56.2683023,35.2868852 56.3850416,35.4836066 56.5251286,35.6311475 C56.6885635,35.7786885 56.8753463,35.8770492 57.1088247,35.9262295 C57.3423031,35.9754098 57.6224772,36 57.9259992,36 C58.0894341,36 58.2295212,36 58.3696082,35.9754098 C58.4863474,35.9508197 58.6497824,35.9262295 58.8132173,35.9016393 C58.9299565,35.8770492 59,35.8032787 59,35.6803279 Z" id="Fill-8" fill="#005697"></path>
                    </g>
                </g>
            </g>
        </g>
    </g>
</svg>