<?xml version="1.0" encoding="UTF-8"?>
<svg width="45px" height="39px" viewBox="0 0 45 39" version="1.1" xmlns="http://www.w3.org/2000/svg" xmlns:xlink="http://www.w3.org/1999/xlink">
    <!-- Generator: Sketch 58 (84663) - https://sketch.com -->
    <title>Paypal (1)</title>
    <desc>Created with Sketch.</desc>
    <g id="AnaPopova-Site" stroke="none" stroke-width="1" fill="none" fill-rule="evenodd">
        <g id="Cos._APL---" transform="translate(-523.000000, -1319.000000)" fill-rule="nonzero">
            <g id="We-accept." transform="translate(291.000000, 1276.000000)">
                <g id="we-accept">
                    <g id="Paypal-(1)" transform="translate(232.000000, 43.000000)">
                        <path d="M30.6931697,26.5 L27.0409476,26.5 C26.826111,26.5 26.6112744,26.7105263 26.5038561,26.9210526 L25,36.1842105 C25,36.3947368 25.1074183,36.5 25.3222549,36.5 L27.2557842,36.5 C27.4706208,36.5 27.5780391,36.3947368 27.5780391,36.1842105 L28.0077123,33.5526316 C28.0077123,33.3421053 28.2225489,33.1315789 28.5448038,33.1315789 L29.726405,33.1315789 C32.1970258,33.1315789 33.5934637,31.9736842 33.9157186,29.6578947 C34.1305552,28.7105263 33.9157186,27.8684211 33.4860454,27.3421053 C32.8415356,26.8157895 31.8747709,26.5 30.6931697,26.5 M31.1228429,29.9736842 C30.9080063,31.2368421 29.9412416,31.2368421 28.974477,31.2368421 L28.3299672,31.2368421 L28.7596404,28.8157895 C28.7596404,28.7105263 28.8670587,28.6052632 29.0818952,28.6052632 L29.2967318,28.6052632 C29.9412416,28.6052632 30.5857514,28.6052632 30.9080063,29.0263158 C31.1228429,29.1315789 31.1228429,29.4473684 31.1228429,29.9736842" id="Shape" fill="#139AD6"></path>
                        <g id="Group" transform="translate(0.000000, 26.500000)" fill="#263B80">
                            <path d="M5.28372093,0.025974026 L1.91007752,0.025974026 C1.71162791,0.025974026 1.51317829,0.233766234 1.41395349,0.441558442 L0.0248062016,9.58441558 C0.0248062016,9.79220779 0.124031008,9.8961039 0.32248062,9.8961039 L1.91007752,9.8961039 C2.10852713,9.8961039 2.30697674,9.68831169 2.40620155,9.48051948 L2.80310078,6.98701299 C2.80310078,6.77922078 3.00155039,6.57142857 3.29922481,6.57142857 L4.39069767,6.57142857 C6.67286822,6.57142857 7.9627907,5.42857143 8.26046512,3.14285714 C8.45891473,2.20779221 8.26046512,1.37662338 7.86356589,0.857142857 C7.26821705,0.337662338 6.4744186,0.025974026 5.28372093,0.025974026 M5.68062016,3.45454545 C5.48217054,4.7012987 4.58914729,4.7012987 3.69612403,4.7012987 L3.2,4.7012987 L3.59689922,2.31168831 C3.59689922,2.20779221 3.69612403,2.1038961 3.89457364,2.1038961 L4.09302326,2.1038961 C4.68837209,2.1038961 5.28372093,2.1038961 5.58139535,2.51948052 C5.68062016,2.62337662 5.77984496,2.93506494 5.68062016,3.45454545" id="Shape"></path>
                            <path d="M15.503876,3.35064935 L13.9162791,3.35064935 C13.8170543,3.35064935 13.6186047,3.45454545 13.6186047,3.55844156 L13.5193798,4.07792208 L13.420155,3.87012987 C13.0232558,3.35064935 12.3286822,3.14285714 11.5348837,3.14285714 C9.74883721,3.14285714 8.16124031,4.5974026 7.86356589,6.57142857 C7.66511628,7.61038961 7.9627907,8.54545455 8.45891473,9.16883117 C8.95503876,9.79220779 9.6496124,10 10.5426357,10 C12.0310078,10 12.8248062,9.06493506 12.8248062,9.06493506 L12.7255814,9.58441558 C12.7255814,9.79220779 12.8248062,9.8961039 13.0232558,9.8961039 L14.5116279,9.8961039 C14.7100775,9.8961039 14.9085271,9.68831169 15.0077519,9.48051948 L15.9007752,3.66233766 C15.8015504,3.55844156 15.6031008,3.35064935 15.503876,3.35064935 M13.2217054,6.67532468 C13.0232558,7.61038961 12.3286822,8.33766234 11.3364341,8.33766234 C10.8403101,8.33766234 10.4434109,8.12987013 10.2449612,7.92207792 C10.0465116,7.61038961 9.94728682,7.19480519 9.94728682,6.67532468 C10.0465116,5.74025974 10.8403101,5.01298701 11.7333333,5.01298701 C12.2294574,5.01298701 12.5271318,5.22077922 12.8248062,5.42857143 C13.1224806,5.74025974 13.2217054,6.25974026 13.2217054,6.67532468" id="Shape"></path>
                        </g>
                        <path d="M40.6079703,29.7121212 L39.0398513,29.7121212 C38.9418439,29.7121212 38.745829,29.8181818 38.745829,29.9242424 L38.6478216,30.4545455 L38.5498142,30.2424242 C38.1577845,29.7121212 37.4717324,29.5 36.687673,29.5 C34.9235392,29.5 33.3554203,30.9848485 33.061398,33 C32.8653831,34.0606061 33.1594054,35.0151515 33.6494425,35.6515152 C34.1394797,36.2878788 34.8255317,36.5 35.7075986,36.5 C37.1777101,36.5 37.9617696,35.5454545 37.9617696,35.5454545 L37.8637622,36.0757576 C37.8637622,36.2878788 37.9617696,36.3939394 38.1577845,36.3939394 L39.6278959,36.3939394 C39.8239108,36.3939394 40.0199257,36.1818182 40.1179331,35.969697 L41,30.030303 C40.9019926,29.9242424 40.8039851,29.7121212 40.6079703,29.7121212 M38.3537993,33.1060606 C38.1577845,34.0606061 37.4717324,34.8030303 36.4916581,34.8030303 C36.0016209,34.8030303 35.6095912,34.5909091 35.4135763,34.3787879 C35.2175615,34.0606061 35.119554,33.6363636 35.119554,33.1060606 C35.2175615,32.1515152 36.0016209,31.4090909 36.8836878,31.4090909 C37.373725,31.4090909 37.6677473,31.6212121 37.9617696,31.8333333 C38.3537993,32.1515152 38.4518068,32.6818182 38.3537993,33.1060606" id="Shape" fill="#139AD6"></path>
                        <path d="M24.7455222,29.5 L23.0354718,29.5 C22.8342894,29.5 22.7336982,29.6034483 22.633107,29.7068966 L20.4201007,33.2241379 L19.4141887,29.9137931 C19.3135975,29.7068966 19.2130063,29.6034483 18.9112327,29.6034483 L17.3017736,29.6034483 C17.1005912,29.6034483 17,29.8103448 17,30.0172414 L18.8106415,35.5 L17.1005912,37.9827586 C17,38.1896552 17.1005912,38.5 17.3017736,38.5 L18.9112327,38.5 C19.1124151,38.5 19.2130063,38.3965517 19.3135975,38.2931034 L24.8461134,30.1206897 C25.147887,29.8103448 24.9467046,29.5 24.7455222,29.5" id="Path" fill="#263B80"></path>
                        <path d="M42.5555556,26.7507859 L41,36.1855092 C41,36.3951697 41.1111111,36.5 41.3333333,36.5 L42.8888889,36.5 C43.1111111,36.5 43.3333333,36.2903395 43.4444444,36.080679 L45,26.8556162 C45,26.6459557 44.8888889,26.5411254 44.6666667,26.5411254 L42.8888889,26.5411254 C42.7777778,26.4362952 42.6666667,26.5411254 42.5555556,26.7507859" id="Path" fill="#139AD6"></path>
                        <path d="M30.7294266,2.44366197 C29.6502441,1.14788732 27.6460481,0.5 24.8710074,0.5 L17.1625611,0.5 C16.7000542,0.5 16.2375475,0.985915493 16.0833786,1.47183099 L13,22.6901409 C13,23.1760564 13.3083379,23.5 13.6166757,23.5 L18.3959125,23.5 L19.6292639,15.5633803 L19.6292639,15.887324 C19.7834329,15.4014084 20.2459396,14.9154929 20.7084464,14.9154929 L23.0209802,14.9154929 C27.4918791,14.9154929 30.8835956,12.971831 31.962778,7.62676057 C31.962778,7.46478873 31.962778,7.3028169 31.962778,7.14084507 C31.8086091,7.14084507 31.8086091,7.14084507 31.962778,7.14084507 C32.116947,5.03521127 31.8086091,3.73943662 30.7294266,2.44366197" id="Path" fill="#263B80"></path>
                        <path d="M32.1264993,7.5 L32.1264993,7.5 C32.1264993,7.65966387 32.1264993,7.81932774 32.1264993,7.97899159 C31.0277715,13.407563 27.5746273,15.1638655 23.0227553,15.1638655 L20.6683388,15.1638655 C20.1974555,15.1638655 19.7265722,15.6428571 19.569611,16.1218488 L18,25.8613445 C18,26.1806723 18.1569611,26.5 18.6278444,26.5 L22.7088331,26.5 C23.1797164,26.5 23.6505997,26.1806723 23.6505997,25.7016807 L23.6505997,25.5420168 L24.4354052,20.5924369 L24.4354052,20.2731092 C24.4354052,19.7941177 24.9062885,19.4747899 25.3771718,19.4747899 L26.0050162,19.4747899 C29.9290438,19.4747899 33.0682659,17.8781512 33.8530713,13.0882353 C34.1669935,11.1722689 34.0100325,9.41596638 33.0682659,8.29831933 C32.9113047,7.97899159 32.5973826,7.65966387 32.1264993,7.5" id="Path" fill="#139AD6"></path>
                        <path d="M31.5555556,7 C31.3950617,7 31.2345679,6.83333334 31.0740742,6.83333334 C30.9135803,6.83333334 30.7530865,6.83333334 30.5925927,6.66666666 C29.9506173,6.5 29.3086421,6.5 28.5061729,6.5 L22.2469136,6.5 C22.0864198,6.5 21.9259259,6.5 21.7654321,6.66666666 C21.4444444,6.83333334 21.2839507,7.16666666 21.2839507,7.5 L20,16.1666666 L20,16.5 C20.1604938,16 20.6419754,15.5 21.1234569,15.5 L23.5308642,15.5 C28.1851852,15.5 31.7160494,13.5 32.8395062,8 C32.8395062,7.83333334 32.8395062,7.66666666 33,7.5 C32.6790125,7.33333334 32.5185186,7.16666666 32.1975309,7.16666666 C31.7160494,7 31.7160494,7 31.5555556,7" id="Path" fill="#232C65"></path>
                    </g>
                </g>
            </g>
        </g>
    </g>
</svg>