<?xml version="1.0" encoding="UTF-8"?>
<svg width="33px" height="28px" viewBox="0 0 33 28" version="1.1" xmlns="http://www.w3.org/2000/svg" xmlns:xlink="http://www.w3.org/1999/xlink">
    <!-- Generator: Sketch 58 (84663) - https://sketch.com -->
    <title>Mask</title>
    <desc>Created with Sketch.</desc>
    <defs>
        <path d="M31,7.921875 C31,10.4157986 29.6795015,12.9548611 27.0385045,15.5390625 L16.2611607,25.6953125 C16.0535714,25.8984375 15.7998512,26 15.5,26 C15.2001488,26 14.9464286,25.8984375 14.7388393,25.6953125 L3.94419643,15.5052083 C3.82886905,15.4149306 3.6702939,15.2682292 3.46847098,15.0651042 C3.26664807,14.8619792 2.94661458,14.4924045 2.50837054,13.9563802 C2.07012649,13.4203559 1.67801339,12.8702257 1.33203125,12.3059896 C0.986049107,11.7417535 0.677548363,11.0590278 0.406529018,10.2578125 C0.135509673,9.45659722 5.32907052e-15,8.67795139 5.32907052e-15,7.921875 C5.32907052e-15,5.43923611 0.732328869,3.49826389 2.19698661,2.09895833 C3.66164435,0.699652778 5.68563988,-1.0658141e-14 8.26897321,-1.0658141e-14 C8.98400298,-1.0658141e-14 9.71344866,0.121310764 10.4573103,0.363932292 C11.2011719,0.606553819 11.8931362,0.933810764 12.5332031,1.34570312 C13.1732701,1.75759549 13.7239583,2.14409722 14.1852679,2.50520833 C14.6465774,2.86631944 15.0848214,3.25 15.5,3.65625 C15.9151786,3.25 16.3534226,2.86631944 16.8147321,2.50520833 C17.2760417,2.14409722 17.8267299,1.75759549 18.4667969,1.34570312 C19.1068638,0.933810764 19.7988281,0.606553819 20.5426897,0.363932292 C21.2865513,0.121310764 22.015997,-1.0658141e-14 22.7310268,-1.0658141e-14 C25.3143601,-1.0658141e-14 27.3383557,0.699652778 28.8030134,2.09895833 C30.2676711,3.49826389 31,5.43923611 31,7.921875 Z" id="path-1"></path>
    </defs>
    <g id="Symbols" stroke="none" stroke-width="1" fill="none" fill-rule="evenodd">
        <g id="2" transform="translate(-18.000000, -16.000000)">
            <g id="iconfinder_heart-o_1608926">
                <g transform="translate(19.000000, 17.000000)">
                    <g id="Gold-Texture">
                        <mask id="mask-2" fill="white">
                            <use xlink:href="#path-1"></use>
                        </mask>
                        <use id="Mask" stroke="#B22D00" fill="#FFE8DF" fill-rule="nonzero" opacity="0.916666667" xlink:href="#path-1"></use>
                    </g>
                </g>
            </g>
        </g>
    </g>
</svg>