<?xml version="1.0" encoding="UTF-8"?>
<svg width="33px" height="28px" viewBox="0 0 33 28" version="1.1" xmlns="http://www.w3.org/2000/svg" xmlns:xlink="http://www.w3.org/1999/xlink">
    <!-- Generator: Sketch 58 (84663) - https://sketch.com -->
    <title>Mask</title>
    <desc>Created with Sketch.</desc>
    <defs>
        <path d="M33,8.53125 C33,11.2170139 31.594308,13.9513889 28.7829241,16.734375 L17.3102679,27.671875 C17.0892857,27.890625 16.8191964,28 16.5,28 C16.1808036,28 15.9107143,27.890625 15.6897321,27.671875 L4.19866071,16.6979167 C4.07589286,16.6006944 3.90708705,16.4427083 3.6922433,16.2239583 C3.47739955,16.0052083 3.13671875,15.6072049 2.67020089,15.0299479 C2.20368304,14.452691 1.78627232,13.8602431 1.41796875,13.2526042 C1.04966518,12.6449653 0.721261161,11.9097222 0.432756696,11.046875 C0.144252232,10.1840278 5.32907052e-15,9.34548611 5.32907052e-15,8.53125 C5.32907052e-15,5.85763889 0.779575893,3.76736111 2.33872768,2.26041667 C3.89787946,0.753472222 6.05245536,-1.0658141e-14 8.80245536,-1.0658141e-14 C9.56361607,-1.0658141e-14 10.3401228,0.130642361 11.1319754,0.391927083 C11.9238281,0.653211806 12.6604353,1.00564236 13.3417969,1.44921875 C14.0231585,1.89279514 14.609375,2.30902778 15.1004464,2.69791667 C15.5915179,3.08680556 16.0580357,3.5 16.5,3.9375 C16.9419643,3.5 17.4084821,3.08680556 17.8995536,2.69791667 C18.390625,2.30902778 18.9768415,1.89279514 19.6582031,1.44921875 C20.3395647,1.00564236 21.0761719,0.653211806 21.8680246,0.391927083 C22.6598772,0.130642361 23.4363839,-1.0658141e-14 24.1975446,-1.0658141e-14 C26.9475446,-1.0658141e-14 29.1021205,0.753472222 30.6612723,2.26041667 C32.2204241,3.76736111 33,5.85763889 33,8.53125 Z" id="path-1"></path>
    </defs>
    <g id="Symbols" stroke="none" stroke-width="1" fill="none" fill-rule="evenodd">
        <g id="2.2" transform="translate(-23.000000, -19.000000)">
            <g id="iconfinder_heart-o_1608926-copy">
                <g transform="translate(23.000000, 19.000000)">
                    <g id="Gold-Texture">
                        <mask id="mask-2" fill="white">
                            <use xlink:href="#path-1"></use>
                        </mask>
                        <use id="Mask" fill="#FFE8DF" fill-rule="nonzero" opacity="0.916666667" xlink:href="#path-1"></use>
                    </g>
                </g>
            </g>
        </g>
    </g>
</svg>