<?xml version="1.0" encoding="UTF-8"?>
<svg width="27px" height="36px" viewBox="0 0 27 36" version="1.1" xmlns="http://www.w3.org/2000/svg" xmlns:xlink="http://www.w3.org/1999/xlink">
    <!-- Generator: Sketch 58 (84663) - https://sketch.com -->
    <title>button</title>
    <desc>Created with Sketch.</desc>
    <g id="AnaPopova-Site" stroke="none" stroke-width="1" fill="none" fill-rule="evenodd">
        <g id="Prod_One_375---Added-to-cart-new2" transform="translate(-317.000000, -520.000000)" fill="#5C591A" fill-rule="nonzero">
            <g id="Dascription-" transform="translate(0.000000, 506.000000)">
                <g id="Group-9">
                    <g id="Button-Cart" transform="translate(294.000000, 0.000000)">
                        <g id="button" transform="translate(23.000000, 14.000000)">
                            <path d="M11.6787148,0.5 C15.0245198,0.5 17.7512104,3.11838979 17.8707444,6.39257369 L17.8748311,6.61680668 L17.8748311,8.39983629 L22.279329,8.39983629 C22.6413969,8.4004431 22.9414809,8.66416912 22.9924241,9.00880256 L23,9.10466257 L22.999,24.647 L21.516,24.647 L21.516129,9.87209302 L17.846175,9.87209302 L17.846175,12.7266966 C17.846175,13.1141337 17.5280827,13.4282126 17.1364135,13.4282126 C16.7769759,13.4282126 16.4799236,13.1642991 16.432911,12.8218883 L16.4264297,12.7266966 L16.4264297,9.87209302 L6.93545307,9.87209302 L6.93545307,12.7266966 C6.93545307,13.1141337 6.61758307,13.4282126 6.22546927,13.4282126 C5.86643913,13.4282126 5.56923403,13.1642991 5.52219312,12.8218883 L5.51570769,12.7266966 L5.51570769,9.87209302 L1.48387097,9.87209302 L1.48387097,27.9538111 C1.48706031,29.0643268 2.35765534,29.9726847 3.46166598,30.0524563 L3.61360014,30.0581395 L14.833,30.058 L14.8337991,31.3210583 L14.917,31.321 L14.917,31.5 L3.5693779,31.5 C1.66418222,31.49936 0.107815023,30.0255865 0.00536642745,28.1696245 L-2.3918881e-13,27.9763098 L-2.34566589e-13,9.10466257 C0.00102451398,8.7480383 0.269331085,8.45390245 0.617246291,8.40650651 L0.713965022,8.39983629 L5.48237487,8.39983629 L5.48237487,6.61680668 C5.48237487,3.23875998 8.25664524,0.5 11.6787148,0.5 Z M11.4998869,1.94186047 C8.90878912,1.94186047 6.79451132,3.93662799 6.68211872,6.43821497 L6.67741935,6.64782185 L6.67741935,8.43023256 L16.3225806,8.43023256 L16.3225806,6.64782185 C16.3225806,4.04898758 14.1636379,1.94186047 11.4998869,1.94186047 Z" id="Combined-Shape"></path>
                            <polygon id="+" points="27 31.9553244 26.9117647 32.0336597 23.5392157 32.0336597 23.5392157 35.4216646 23.4607843 35.5 22.5392157 35.5 22.4607843 35.4216646 22.4607843 32.0336597 19.0882353 32.0336597 19 31.9553244 19 31.0348837 19.0882353 30.9467564 22.4607843 30.9467564 22.4607843 27.5783354 22.5392157 27.5 23.4607843 27.5 23.5392157 27.5783354 23.5392157 30.9467564 26.9117647 30.9467564 27 31.0348837"></polygon>
                        </g>
                    </g>
                </g>
            </g>
        </g>
    </g>
</svg>