<?xml version="1.0" encoding="UTF-8"?>
<svg width="55px" height="50px" viewBox="0 0 55 50" version="1.1" xmlns="http://www.w3.org/2000/svg" xmlns:xlink="http://www.w3.org/1999/xlink">
    <!-- Generator: Sketch 58 (84663) - https://sketch.com -->
    <title>credit-card</title>
    <desc>Created with Sketch.</desc>
    <g id="AnaPopova-Site" stroke="none" stroke-width="1" fill="none" fill-rule="evenodd">
        <g id="Home_page_APL-Copy" transform="translate(-1444.000000, -1013.000000)" fill="#B22D00" fill-rule="nonzero">
            <g id="Icons" transform="translate(0.000000, 901.000000)">
                <g id="Group-21" transform="translate(1327.000000, 112.000000)">
                    <g id="credit-card-2" transform="translate(117.000000, 0.000000)">
                        <g id="credit-card">
                            <path d="M43.6397661,39.0456522 C43.1531287,38.7034783 42.4850877,38.8265217 42.1479045,39.3198913 C41.8211209,39.7981522 41.450809,40.2631522 41.0467251,40.7021739 C40.7760136,40.9966304 40.4035575,41.3516304 39.9982943,41.7011957 C39.5473587,42.0903261 39.4928947,42.7763043 39.8766082,43.233587 C40.0886745,43.4861957 40.3902632,43.6159783 40.6936745,43.6159783 C40.9392982,43.6159783 41.1862086,43.5308696 41.3880897,43.3567391 C41.8608967,42.9486957 42.2853509,42.5434783 42.614922,42.1846739 C43.0890156,41.6696739 43.5249415,41.1223913 43.9104776,40.5580435 C44.2476608,40.0646739 44.1265107,39.3875 43.6397661,39.0456522 Z" id="Path"></path>
                            <path d="M38.9689474,43.9193478 C38.7174269,43.3758696 38.0792982,43.1419565 37.5430214,43.3968478 L37.5094639,43.4121739 C36.9677193,43.6544565 36.7224172,44.2961957 36.9616082,44.8454348 C37.1385088,45.2519565 37.5311209,45.4938043 37.942924,45.4938043 C38.0875536,45.4938043 38.2345419,45.463913 38.3752047,45.4009783 C38.4013645,45.3893478 38.4273099,45.3773913 38.4533626,45.3651087 C38.989425,45.1101087 39.2202534,44.4630435 38.9689474,43.9193478 Z" id="Path"></path>
                            <path d="M51.689922,0.000108695652 L3.20297271,0.000108695652 C1.43675439,0.000108695652 0,1.45695652 0,3.2473913 L0,33.7095652 C0,35.4998913 1.43675439,36.9566304 3.20297271,36.9566304 L25.7804191,36.9566304 C26.7375049,41.0620652 28.9018031,43.9696739 30.7933528,45.8325 C33.5542885,48.5518478 36.7192008,50 37.9423879,50 C39.1654678,50 42.3303801,48.5519565 45.091423,45.8326087 C46.9829727,43.9696739 49.1473782,41.0620652 50.1043567,36.9567391 L51.689922,36.9567391 C53.4560331,36.9567391 54.8928947,35.5 54.8928947,33.7096739 L54.8928947,3.2473913 C54.8928947,1.45695652 53.4560331,0.000108695652 51.689922,0.000108695652 Z M48.460039,32.5020652 C48.460039,38.2290217 45.8526316,42.0278261 43.6650682,44.2061957 C41.0702047,46.7902174 38.4084405,47.7953261 37.9423879,47.8258696 C37.4762281,47.7953261 34.8143567,46.7903261 32.2194932,44.2061957 C30.0321442,42.0278261 27.4246296,38.2290217 27.4246296,32.5020652 L27.4246296,27.1492391 C31.1159552,26.0669565 34.5699123,24.5857609 37.9427096,22.6392391 C41.2394932,24.5363043 44.8482651,26.0833696 48.460039,27.148587 L48.460039,32.5020652 Z M52.7486452,33.7095652 C52.7486452,34.3013043 52.2735867,34.7827174 51.689922,34.7827174 L50.4772417,34.7827174 C50.5593665,34.0543478 50.6043957,33.2947826 50.6043957,32.5020652 L50.6043957,26.3251087 C50.6043957,25.8344565 50.2801852,25.4047826 49.8132749,25.2761957 C45.9200682,24.2043478 42.0024172,22.5341304 38.4839181,20.4461957 C38.1494152,20.2477174 37.7353606,20.2479348 37.4006433,20.446413 C33.7824366,22.593587 30.0766374,24.1732609 26.071501,25.2761957 C25.6045906,25.4048913 25.2803801,25.8345652 25.2803801,26.3251087 L25.2803801,32.5020652 C25.2803801,33.2947826 25.3253021,34.0543478 25.4075341,34.7827174 L3.20297271,34.7827174 C2.61920078,34.7827174 2.14424951,34.3011957 2.14424951,33.7095652 L2.14424951,15.2172826 L52.7486452,15.2172826 L52.7486452,33.7095652 Z M52.7486452,13.0434783 L2.14424951,13.0434783 L2.14424951,8.69586957 L52.7486452,8.69586957 L52.7486452,13.0434783 Z M52.7486452,6.52184783 L2.14424951,6.52184783 L2.14424951,3.2473913 C2.14424951,2.65554348 2.61920078,2.17402174 3.20297271,2.17402174 L51.689922,2.17402174 C52.2735867,2.17402174 52.7486452,2.65554348 52.7486452,3.2473913 L52.7486452,6.52184783 Z" id="Shape"></path>
                            <path d="M12.8651754,22.826413 C12.2187914,22.826413 11.5805556,22.958913 10.9898148,23.2115217 C10.4126901,22.963587 9.77842105,22.826413 9.11327485,22.826413 C6.4530117,22.826413 4.28860624,25.0205435 4.28860624,27.7175 C4.28860624,30.4144565 6.45290448,32.6088043 9.11327485,32.6088043 C9.77842105,32.6088043 10.4126901,32.4716304 10.9897076,32.2236957 C11.5805556,32.4763043 12.2187914,32.6088043 12.8651754,32.6088043 C15.5255458,32.6088043 17.6899513,30.4144565 17.6899513,27.7175 C17.6899513,25.0205435 15.5255458,22.826413 12.8651754,22.826413 Z M9.11327485,30.4348913 C7.63524366,30.4348913 6.43285575,29.2159783 6.43285575,27.7175 C6.43285575,26.2191304 7.63524366,25.0003261 9.11327485,25.0003261 C10.5910916,25.0003261 11.7934795,26.2191304 11.7934795,27.7175 C11.7934795,29.2158696 10.5910916,30.4348913 9.11327485,30.4348913 Z M13.1309552,30.4216304 C13.6402144,29.6465217 13.937729,28.7166304 13.937729,27.7176087 C13.937729,26.718587 13.6402144,25.788913 13.1310624,25.0138043 C14.4846199,25.1494565 15.5455945,26.3103261 15.5455945,27.7176087 C15.5455945,29.1248913 14.4846199,30.2858696 13.1309552,30.4216304 Z" id="Shape"></path>
                            <path d="M10.8752047,17.9348913 L5.36051657,17.9348913 C4.76838207,17.9348913 4.28839181,18.4215217 4.28839181,19.0218478 C4.28839181,19.6220652 4.76838207,20.1088043 5.36051657,20.1088043 L10.8752047,20.1088043 C11.4673392,20.1088043 11.9473294,19.6219565 11.9473294,19.0218478 C11.9473294,18.4215217 11.4673392,17.9348913 10.8752047,17.9348913 Z" id="Path"></path>
                            <path d="M14.0444055,17.9348913 L13.9935867,17.9348913 C13.4014522,17.9348913 12.921462,18.4215217 12.921462,19.0218478 C12.921462,19.6220652 13.4014522,20.1088043 13.9935867,20.1088043 L14.0444055,20.1088043 C14.6364327,20.1088043 15.1165302,19.6219565 15.1165302,19.0218478 C15.1165302,18.4215217 14.6364327,17.9348913 14.0444055,17.9348913 Z" id="Path"></path>
                            <path d="M43.8273879,30.0028261 C43.4089376,29.578587 42.7301754,29.5783696 42.3112963,30.0027174 L36.5778947,35.815 L33.5734795,32.7688043 C33.1547076,32.3446739 32.4758382,32.3444565 32.0571735,32.7688043 C31.6385088,33.1933696 31.6384016,33.8816304 32.0571735,34.306087 L35.8197953,38.1208696 C36.0291813,38.3331522 36.303538,38.4393478 36.5778947,38.4393478 C36.8522515,38.4393478 37.1267154,38.3331522 37.3358869,38.1208696 L43.8272807,31.5401087 C44.2460526,31.1157609 44.2460526,30.4275 43.8273879,30.0028261 Z" id="Path"></path>
                        </g>
                    </g>
                </g>
            </g>
        </g>
    </g>
</svg>