<?xml version="1.0" encoding="UTF-8"?>
<svg width="14px" height="14px" viewBox="0 0 14 14" version="1.1" xmlns="http://www.w3.org/2000/svg" xmlns:xlink="http://www.w3.org/1999/xlink">
    <!-- Generator: Sketch 58 (84663) - https://sketch.com -->
    <title>Shape Copy 3</title>
    <desc>Created with Sketch.</desc>
    <g id="Symbols" stroke="none" stroke-width="1" fill="none" fill-rule="evenodd">
        <g id="Footer" transform="translate(-348.000000, -254.000000)" fill="#5C591A" fill-rule="nonzero">
            <g id="Group-10">
                <g>
                    <g transform="translate(14.000000, 253.000000)">
                        <path d="M341.396245,8.38985267 L347.617243,8.38985579 C347.829701,8.38615944 348,8.2127073 348,8.00001109 C348,7.78731488 347.829701,7.61386287 347.617243,7.61016669 L341.396245,7.61016357 L341.39627,1.38312748 C341.392577,1.17046339 341.219293,1 341.006802,1 C340.794312,1 340.621027,1.17046369 340.617335,1.38312778 L340.61731,7.61016387 L334.396296,7.61014421 C334.255539,7.60769543 334.124415,7.6814592 334.053321,7.80308436 C333.982227,7.92470951 333.982226,8.07526833 334.05332,8.19689343 C334.124415,8.31851852 334.255539,8.39228219 334.396295,8.38983331 L340.61731,8.38985297 L340.617302,14.6168725 C340.620995,14.8295366 340.794279,15 341.006769,15 C341.21926,15 341.392544,14.8295363 341.396237,14.6168722 L341.396245,8.38985267 Z" id="Shape-Copy-3"></path>
                    </g>
                </g>
            </g>
        </g>
    </g>
</svg>