<?xml version="1.0" encoding="UTF-8"?>
<svg width="31px" height="32px" viewBox="0 0 31 32" version="1.1" xmlns="http://www.w3.org/2000/svg" xmlns:xlink="http://www.w3.org/1999/xlink">
    <!-- Generator: Sketch 58 (84663) - https://sketch.com -->
    <title>Shape Copy</title>
    <desc>Created with Sketch.</desc>
    <g id="AnaPopova-Site" stroke="none" stroke-width="1" fill="none" fill-rule="evenodd">
        <g id="Cats_One._APL--Filter" transform="translate(-1177.000000, -433.000000)" fill="#B22D00" fill-rule="nonzero">
            <g id="filter" transform="translate(690.000000, 327.000000)">
                <g id="Group-7">
                    <g id="Category" transform="translate(18.000000, 106.000000)">
                        <path d="M485.763242,15.9896258 L495.318824,6.43405341 C495.639492,6.10204082 495.634906,5.57429019 495.308517,5.24790037 C494.982127,4.92151055 494.454377,4.91692454 494.122365,5.23759302 L484.566783,14.7931654 L475.011218,5.23752533 C474.679205,4.91685684 474.151455,4.92144285 473.825066,5.24783268 C473.498676,5.5742225 473.49409,6.10197313 473.814758,6.43398571 L483.370323,15.9896258 L473.814691,25.5451981 C473.594728,25.7576455 473.506511,26.0722481 473.583947,26.3680881 C473.661383,26.6639281 473.892421,26.8949659 474.188261,26.972402 C474.4841,27.0498381 474.798703,26.9616215 475.01115,26.7416585 L484.566783,17.1860861 L494.122348,26.7416754 C494.45436,27.0623439 494.98211,27.0577579 495.3085,26.7313681 C495.634889,26.4049782 495.639475,25.8772276 495.318807,25.545215 L485.763242,15.9896258 Z" id="Shape-Copy" transform="translate(484.556349, 16.000000) rotate(-315.000000) translate(-484.556349, -16.000000) "></path>
                    </g>
                </g>
            </g>
        </g>
    </g>
</svg>