<?xml version="1.0" encoding="UTF-8"?>
<svg width="34px" height="34px" viewBox="0 0 34 34" version="1.1" xmlns="http://www.w3.org/2000/svg" xmlns:xlink="http://www.w3.org/1999/xlink">
    <!-- Generator: Sketch 58 (84663) - https://sketch.com -->
    <title>Shape</title>
    <desc>Created with Sketch.</desc>
    <g id="AnaPopova-Site" stroke="none" stroke-width="1" fill="none" fill-rule="evenodd">
        <g id="Cats_One._APL--" transform="translate(-1174.000000, -364.000000)" fill="#42261D" fill-rule="nonzero">
            <g id="filter" transform="translate(690.000000, 342.000000)">
                <g id="-Rose-1920-Personal-Cab2-Copy">
                    <path d="M502.31661,38.9886826 L512.740882,28.5644219 C513.090702,28.2022264 513.085699,27.6264984 512.729637,27.2704368 C512.373576,26.9143751 511.797848,26.9093722 511.435653,27.2591924 L501.011382,37.6834531 L490.587129,27.2591185 C490.224934,26.9092984 489.649206,26.9143013 489.293145,27.2703629 C488.937084,27.6264245 488.932081,28.2021525 489.281901,28.5643481 L499.706153,38.9886826 L489.281827,49.4129434 C489.041867,49.6447042 488.945631,49.987907 489.030107,50.3106416 C489.114583,50.6333761 489.366624,50.8854174 489.689358,50.9698931 C490.012092,51.0543688 490.355295,50.9581326 490.587055,50.7181729 L501.011382,40.2939122 L511.435635,50.7181914 C511.79783,51.0680115 512.373557,51.0630086 512.729619,50.706947 C513.08568,50.3508853 513.090683,49.7751574 512.740863,49.4129618 L502.31661,38.9886826 Z" id="Shape" transform="translate(501.000000, 39.000000) rotate(-315.000000) translate(-501.000000, -39.000000) "></path>
                </g>
            </g>
        </g>
    </g>
</svg>