<?xml version="1.0" encoding="UTF-8"?>
<svg width="72px" height="61px" viewBox="0 0 72 61" version="1.1" xmlns="http://www.w3.org/2000/svg" xmlns:xlink="http://www.w3.org/1999/xlink">
    <!-- Generator: Sketch 58 (84663) - https://sketch.com -->
    <title>box (1)</title>
    <desc>Created with Sketch.</desc>
    <g id="AnaPopova-Site" stroke="none" stroke-width="1" fill="none" fill-rule="evenodd">
        <g id="Home_page_APL-Copy" transform="translate(-1068.000000, -999.000000)" fill="#B22D00" fill-rule="nonzero">
            <g id="Icons" transform="translate(0.000000, 901.000000)">
                <g id="Group-17" transform="translate(976.000000, 97.000000)">
                    <g id="box-(1)-2" transform="translate(92.000000, 0.500000)">
                        <g id="box-(1)" transform="translate(0.000000, 0.500000)">
                            <path d="M71.7644531,31.0407649 L63.9993163,18.5958479 C63.9931641,18.5863684 63.9865722,18.5777506 63.9808594,18.568702 C63.974707,18.5592224 63.9685547,18.5506047 63.9624024,18.541556 C63.9496582,18.5225969 63.9364746,18.5040687 63.9219726,18.4855405 C63.9166993,18.4782154 63.9101074,18.4713212 63.9043945,18.4635652 C63.8868163,18.4420208 63.8701172,18.4204764 63.8512207,18.4002247 C63.8472656,18.3959157 63.8428711,18.3916069 63.8384766,18.3872979 C63.8279297,18.375664 63.8169434,18.36403 63.8050781,18.352396 C63.8006836,18.3480872 63.7962891,18.3433474 63.7918945,18.3386076 C63.7532226,18.3002586 63.7114746,18.2653566 63.6688476,18.2321781 C63.6604981,18.2261458 63.6521484,18.2196824 63.6446778,18.21365 C63.6112793,18.1890893 63.5770019,18.1658214 63.5414062,18.1442769 C63.5365722,18.1412608 63.5312988,18.1378137 63.5260254,18.1347974 C63.5189941,18.1304885 63.5124024,18.1261797 63.5053711,18.1223016 C63.5040528,18.1218707 63.5036132,18.1205782 63.5027344,18.1201472 C63.5000976,18.1184236 63.496582,18.1179928 63.4939453,18.1158384 C63.45,18.0917086 63.4051757,18.0701641 63.3594726,18.0507742 C63.3528809,18.0481889 63.3467285,18.0447418 63.3401368,18.0421564 C63.3357422,18.040002 63.3317871,18.0382785 63.3273925,18.0369858 C63.2772949,18.017165 63.2258788,18.0003603 63.173584,17.98571 C63.1661132,17.9839865 63.1582031,17.9814012 63.1511719,17.9796776 C63.1485351,17.9792468 63.1467774,17.9783849 63.14458,17.9770923 L40.4367187,12.298415 C40.4050781,12.2910898 40.3734375,12.2854882 40.3413574,12.2794558 C39.792041,11.0656433 39.153955,10.1047624 38.4209472,9.38604066 C36.6231445,7.62327645 34.4056641,5.93764127 30.5077149,4.99313404 C27.9118653,4.36446793 25.4948731,4.32913514 25.4056641,4.31922468 C25.302832,4.30802164 25.1986816,4.30242001 25.0949707,4.30242001 L22.6814941,4.30242001 L22.6814941,2.7912947 C22.6814941,1.65762746 21.975293,0.638576459 20.9003906,0.22147655 C20.5637695,0.0913483273 20.212207,0.0280077143 19.8645996,0.0280077143 C19.1003906,0.0280077143 18.3515625,0.333076678 17.807959,0.9014184 L11.2693359,7.74004721 C10.7573731,8.27521047 10.4835937,8.98876156 10.5086425,9.72170259 C10.5336913,10.4555055 10.8553711,11.1492357 11.4024903,11.6499279 L17.9406738,17.6336743 C18.473291,18.1205782 19.1641113,18.3765258 19.8641601,18.3765258 C20.2434082,18.3765258 20.6257324,18.3019821 20.9869629,18.148155 C22.0157226,17.7095106 22.6814941,16.7137277 22.6814941,15.6136698 L22.6814941,14.9578577 L25.0949707,14.9578577 C26.1228516,14.9578577 27.0905274,15.0384338 27.9962403,15.1995861 L27.511084,15.4667369 L11.6173828,24.0194394 C11.6068359,24.0246101 11.597168,24.0310734 11.5866211,24.0371058 C11.5835449,24.0392603 11.5800293,24.0409838 11.5760743,24.0431383 C11.5712403,24.0461546 11.5659668,24.048309 11.5606934,24.0517561 C11.5536621,24.0560649 11.5466309,24.0608047 11.5395996,24.0651135 C11.5237793,24.0745931 11.5083984,24.0853653 11.493457,24.0957066 C11.4807129,24.1043244 11.4675293,24.1125113 11.4556641,24.1215599 C11.4521484,24.1237143 11.4495118,24.1258689 11.4464356,24.1280233 C11.4319336,24.1387955 11.41875,24.1495678 11.4051269,24.1607708 C11.3919434,24.1711121 11.3783203,24.1818843 11.3655762,24.1930874 C11.3607422,24.1965346 11.3559082,24.2008434 11.3510743,24.2051523 C11.3444824,24.2111847 11.3378906,24.2176481 11.3312988,24.2241114 C11.3277832,24.2266967 11.3251465,24.2297129 11.3220703,24.2327292 C11.310205,24.2435014 11.2983399,24.2542735 11.2869141,24.2659075 C11.2790038,24.2736636 11.2719726,24.2818504 11.2645019,24.2891755 C11.2543945,24.2995168 11.245166,24.3102891 11.2350586,24.3210613 C11.2280274,24.3288173 11.2209961,24.3370041 11.2139649,24.345191 C11.203418,24.356825 11.1941894,24.3693208 11.1849609,24.3818165 C11.1744141,24.3938814 11.1643066,24.4063771 11.1550781,24.4193038 C11.1524413,24.4231818 11.1498047,24.426198 11.147168,24.4296451 C11.1304687,24.4520513 11.1155274,24.4757502 11.1010254,24.4990181 C11.0953125,24.5076359 11.0895996,24.5153919 11.0843262,24.5240097 L8.78950192,28.2981605 C8.39091802,28.9539726 8.61020505,29.8019609 9.27861322,30.1927766 C9.94702151,30.5827306 10.8118653,30.3690099 11.2100097,29.713198 L12.9726562,26.8146121 L29.0337891,30.6564125 L38.2311035,32.8573901 L28.6738769,48.2418273 L3.70019531,42.0659047 L5.72255865,38.7394467 C6.12114255,38.0840656 5.90185552,37.2365082 5.23344724,36.8456926 C4.56547849,36.4548768 3.70063474,36.6690283 3.30205073,37.3248404 L0.311132813,42.2442925 C0.08349615,42.6187344 0.04921875,43.0776306 0.219726563,43.4805111 C0.390234375,43.8838226 0.7453125,44.1841518 1.17729495,44.2910121 L10.8865722,46.6923528 L10.8865722,52.8234629 C10.8865722,53.4603159 11.3299805,54.0144383 11.9610351,54.1656801 L40.1031738,60.8978795 C40.1352538,60.9056354 40.1682129,60.9099444 40.2011719,60.915115 C40.2218262,60.918993 40.2424805,60.9237328 40.2626953,60.9263181 C40.3207031,60.9336433 40.3787109,60.9370904 40.4367187,60.9370904 C40.4916504,60.9370904 40.546582,60.9327814 40.6006347,60.9271799 C40.6129394,60.9254563 40.6248047,60.9237328 40.6371094,60.9220092 C40.6902832,60.9146841 40.7430175,60.9052046 40.7948731,60.8914161 C40.8032226,60.8892617 40.8106934,60.8866763 40.819043,60.8845219 C40.8669434,60.8711644 40.9139649,60.8556524 40.9601074,60.8371243 C40.9693359,60.834108 40.978125,60.8306609 40.9873535,60.8272138 C41.0378906,60.8061003 41.0871094,60.7819706 41.1350097,60.7548246 C41.1394043,60.753101 41.1437988,60.7513775 41.1481934,60.7492229 L63.5084472,47.9427907 C63.9408691,47.6950299 64.2071778,47.2408736 64.2071778,46.7500918 L64.2071778,33.1435 L70.5629882,33.1435 C71.0727538,33.1435 71.5425293,32.873333 71.7921387,32.4368431 C72.0408691,32.001215 72.0307618,31.4673443 71.7644531,31.0407649 L71.7644531,31.0407649 Z M59.0888672,19.8195708 L40.2218262,30.4892278 L37.016455,29.7222466 L37.0252441,24.6351788 C37.0806153,24.9617922 37.10083,25.1681877 37.1043457,25.2082604 C37.1917969,26.6737116 38.4297363,27.7953139 39.9128906,27.7953139 C39.9550781,27.7953139 39.9972656,27.7940212 40.0398925,27.7922977 C41.5814941,27.7263718 42.7812012,26.4414627 42.7324219,24.9290447 C42.7284668,24.8139975 42.6348632,22.0757021 42.136084,18.9112582 C41.9321778,17.6211785 41.6922363,16.4508858 41.4149413,15.3952093 L59.0888672,19.8195708 Z M19.8637207,12.1941399 L19.8637207,15.6136698 L13.3250976,9.6299234 L19.8637207,2.7912947 L19.8637207,7.06527602 C19.8637207,7.06527602 23.788916,6.99417948 25.0949707,7.06527602 C28.1254394,7.22987542 33.0745606,7.79347737 36.4280274,11.3392575 C39.2783203,14.3528905 39.9155274,25.0169459 39.9155274,25.0169459 C39.9155274,25.0169459 39.0436524,12.1941399 25.0949707,12.1941399 C24.9398437,12.1941399 19.8637207,12.1941399 19.8637207,12.1941399 Z M28.8645996,17.8904837 L31.551416,16.4112441 C32.5674316,16.9640737 33.4586425,17.6728851 34.2224121,18.5376781 C34.2210937,18.5665475 34.2180175,18.5941244 34.2180175,18.6229939 L34.1995606,29.0483372 L16.1520996,24.731267 L28.8645996,17.8904837 Z M13.7039062,47.3895301 L28.9924805,51.1705753 C29.1067382,51.199014 29.2227538,51.2123714 29.3365722,51.2123714 C29.8199707,51.2123714 30.2800781,50.9676268 30.5397949,50.5496652 L31.9921875,48.211665 L35.9244141,48.9325412 C36.0114257,48.9484841 36.0984375,48.9562401 36.1845703,48.9562401 C36.8499024,48.9562401 37.4414062,48.4926042 37.5679687,47.8281745 C37.7112305,47.0784288 37.2071778,46.3566908 36.4425293,46.2162211 L33.5601562,45.6879521 L39.027832,36.886196 L39.027832,57.7967762 L13.7039062,51.738486 L13.7039062,47.3895301 Z M61.3885254,45.9563955 L41.8460449,57.149151 L41.8460449,32.7604403 L61.3885254,21.7085852 L61.3885254,45.9563955 Z M64.2067382,30.380213 L64.2067382,24.221957 L68.0493163,30.380213 L64.2067382,30.380213 Z" id="Shape"></path>
                            <path d="M55.2014649,36.014078 C54.7646484,35.767179 54.2258789,35.7693334 53.7899413,36.0188178 L44.4906738,41.3377034 C44.0573731,41.5858951 43.7915038,42.0400515 43.7915038,42.5312641 L43.7915038,50.8844654 C43.7915038,51.3799869 44.0626465,51.8380213 44.5020996,52.0836277 C44.71875,52.2051381 44.9600097,52.2658934 45.2003906,52.2658934 C45.4482422,52.2658934 45.6956543,52.202122 45.9166993,52.0741481 L55.2159668,46.6945072 C55.6453125,46.4463156 55.9089849,45.9938829 55.9089849,45.5043937 L55.9089849,37.2115167 C55.9094238,36.7168569 55.6391601,36.2601153 55.2014649,36.014078 L55.2014649,36.014078 Z M53.0907715,44.715868 L46.6097168,48.4654584 L46.6097168,43.3245296 L53.0907715,39.6171663 L53.0907715,44.715868 Z" id="Shape"></path>
                            <path d="M36.4416504,51.0512192 L33.4577637,50.5031293 C32.6931153,50.3635214 31.9565918,50.8573194 31.8137695,51.607496 C31.6705078,52.3572418 32.175,53.0794105 32.9396484,53.2194493 L35.9239746,53.7666775 C36.0114257,53.7830513 36.0984375,53.7903764 36.1845703,53.7903764 C36.8499024,53.7903764 37.4414063,53.3271714 37.5679688,52.6627416 C37.7112305,51.912565 37.2071778,51.1912579 36.4416504,51.0512192 L36.4416504,51.0512192 Z" id="Path"></path>
                            <path d="M45.2021484,37.3963678 C45.4438476,37.3963678 45.6890625,37.3356126 45.9127441,37.2072079 L49.8599121,34.9403043 C50.5318359,34.5550902 50.7568359,33.7083946 50.3639649,33.0499972 C49.9706543,32.3911689 49.1075684,32.1705541 48.4365234,32.5557683 L44.4884766,34.8226718 C43.8169922,35.207886 43.5915528,36.0545816 43.9844238,36.712548 C44.2472168,37.1520542 44.7183106,37.3963678 45.2021484,37.3963678 L45.2021484,37.3963678 Z" id="Path"></path>
                            <path d="M52.9444337,29.9954297 L52.8767578,30.0109417 C52.1187012,30.1858824 51.6484863,30.9291648 51.8260254,31.6715854 C51.9785156,32.3084383 52.5568359,32.738034 53.1966797,32.738034 C53.3030274,32.738034 53.4111328,32.7264001 53.5196778,32.7014085 L53.587793,32.6858965 C54.3454101,32.5118176 54.815625,31.7681044 54.6380859,31.0252529 C54.4605469,30.2824014 53.7020507,29.8217817 52.9444337,29.9954297 L52.9444337,29.9954297 Z" id="Path"></path>
                            <path d="M7.34414062,34.9553854 C7.45092776,34.9553854 7.55859375,34.9437514 7.6671387,34.9187599 L7.73525385,34.9032479 C8.49287115,34.729169 8.96352536,33.9858866 8.78554687,33.2426042 C8.60800781,32.4997527 7.8499512,32.0391331 7.09233401,32.2127812 L7.02377932,32.2282931 C6.26616214,32.402372 5.79594724,33.1460852 5.97392572,33.8889367 C6.12553714,34.5257898 6.7047363,34.9553854 7.34414062,34.9553854 Z" id="Path"></path>
                        </g>
                    </g>
                </g>
            </g>
        </g>
    </g>
</svg>