<?xml version="1.0" encoding="UTF-8"?>
<svg width="18px" height="14px" viewBox="0 0 18 14" version="1.1" xmlns="http://www.w3.org/2000/svg" xmlns:xlink="http://www.w3.org/1999/xlink">
    <!-- Generator: Sketch 58 (84663) - https://sketch.com -->
    <title>ruler</title>
    <desc>Created with Sketch.</desc>
    <g id="AnaPopova-Site" stroke="none" stroke-width="1" fill="none" fill-rule="evenodd">
        <g id="One_product_APL---Copy-2" transform="translate(-1324.000000, -674.000000)" fill-rule="nonzero">
            <g id="Nazvanie.-dobavlenie-v-korzinu" transform="translate(1151.000000, 350.000000)">
                <g id="Group" transform="translate(3.000000, 323.000000)">
                    <g id="ruler" transform="translate(170.000000, 1.000000)">
                        <path d="M17.6484375,11.5619965 C17.4542541,11.5619965 17.296875,11.7215779 17.296875,11.9184786 L17.296875,13.2870357 L15.1984863,13.2870357 L15.1984863,10.8864907 C15.1984863,10.68959 15.0411072,10.5300086 14.8469238,10.5300086 C14.6528778,10.5300086 14.4953613,10.68959 14.4953613,10.8864907 L14.4953613,13.2870357 L12.3993072,13.2870357 L12.3993072,10.8864907 C12.3993072,10.68959 12.2419281,10.5300086 12.0477447,10.5300086 C11.8535614,10.5300086 11.6961822,10.68959 11.6961822,10.8864907 L11.6961822,13.2870357 L9.60012816,13.2870357 L9.60012816,10.8864907 C9.60012816,10.68959 9.4426117,10.5300086 9.24856566,10.5300086 C9.05438232,10.5300086 8.89700316,10.68959 8.89700316,10.8864907 L8.89700316,13.2870357 L6.80081175,13.2870357 L6.80081175,10.8864907 C6.80081175,10.68959 6.64343262,10.5300086 6.44924925,10.5300086 C6.25506592,10.5300086 6.09768675,10.68959 6.09768675,10.8864907 L6.09768675,13.2655911 C5.5306549,13.2285504 4.98106385,13.1438859 4.46141053,13.0145219 L4.46141053,10.8864907 C4.46141053,10.68959 4.30389404,10.5300086 4.10984803,10.5300086 C3.91566466,10.5300086 3.75828553,10.68959 3.75828553,10.8864907 L3.75828553,12.8060634 C3.26953125,12.6361774 2.81620789,12.4234021 2.41081239,12.1708011 C2.39089964,12.1582685 2.37139893,12.1455967 2.35176086,12.1330641 L2.35176086,9.97871453 C2.35176086,9.78195311 2.19438172,9.6222324 2.00019836,9.6222324 C1.80601502,9.6222324 1.64863586,9.78195311 1.64863586,9.97871453 L1.64863586,11.5902644 C1.03353884,11.0116772 0.703125,10.3435517 0.703125,9.65189282 L0.703125,5.30002586 C0.709991438,5.30893791 0.717269906,5.31771072 0.724273664,5.32662278 C0.733337402,5.3381806 0.742401141,5.34959915 0.751602164,5.36115698 C0.767120344,5.38051286 0.783050555,5.39972945 0.799118051,5.41894609 C0.807769758,5.42925063 0.81628418,5.43969445 0.825073242,5.44999899 C0.845260629,5.47367165 0.865859977,5.49720503 0.886734,5.52059917 C0.891677848,5.52616921 0.896347055,5.53173924 0.901290902,5.53730927 C0.927246094,5.56613421 0.953887922,5.59481986 0.980941781,5.62336631 C0.988494891,5.63130359 0.996322641,5.63924088 1.00401307,5.64717817 C1.02378846,5.66778733 1.04383849,5.68825717 1.0641632,5.70872706 C1.07432557,5.71889236 1.08476258,5.72891842 1.09506227,5.73908375 C1.11360168,5.75718634 1.13227843,5.77528894 1.15122987,5.79339156 C1.1622162,5.80383538 1.17347716,5.81441845 1.18473817,5.82486227 C1.20382692,5.84268637 1.22332764,5.86051048 1.24282835,5.87819531 C1.25381468,5.88808213 1.26480101,5.89796894 1.27606201,5.90785573 C1.29830934,5.9277686 1.32110596,5.947403 1.34403993,5.96703736 C1.35269163,5.9742784 1.36106873,5.98179793 1.36972048,5.98903897 C1.40144347,6.01577513 1.4335785,6.04237205 1.46640016,6.06869044 C1.47285461,6.07398199 1.47958376,6.07913427 1.48617555,6.08428654 C1.51254274,6.10531342 1.53932189,6.12634031 1.56637575,6.14708867 C1.57818604,6.15613997 1.590271,6.16519126 1.60221864,6.17424259 C1.62460329,6.19109193 1.64712523,6.20780203 1.66992188,6.22451213 C1.68338011,6.23425967 1.69683838,6.24400725 1.71029665,6.25361555 C1.73268127,6.26976864 1.75534059,6.2857825 1.77813721,6.30165711 C1.7917328,6.31112613 1.80519103,6.32045595 1.81878662,6.32978576 C1.84350586,6.3466351 1.86849977,6.3633452 1.89363097,6.38019454 C1.90557861,6.38799259 1.9173889,6.39592991 1.92933654,6.4038672 C1.96669005,6.42823611 2.00431825,6.45232649 2.04249572,6.47613839 C3.30633545,7.26415885 4.9794159,7.69806441 6.75357054,7.69806441 L17.296875,7.69806441 L17.296875,9.06662161 C17.296875,9.26352226 17.4542541,9.42310373 17.6484375,9.42310373 C17.8426209,9.42310373 18,9.26352226 18,9.06662161 L18,7.34158228 C18,7.14468162 17.8426209,6.98510015 17.6484375,6.98510015 L10.3062744,6.98510015 L10.3062744,3.35009647 C10.3062744,2.42198969 9.74734495,1.56239432 8.73248291,0.929638546 C7.77090452,0.330163729 6.49978636,0 5.15313721,0 C3.80648805,0 2.53523254,0.330163729 1.5737915,0.929638546 C0.558929461,1.56225508 0,2.42198969 0,3.35009647 L0,9.65189282 C0,10.8466649 0.725372297,11.9567726 2.04249572,12.778074 C3.21789551,13.5108118 4.7473297,13.9371979 6.382782,13.993316 C6.40434266,13.9976327 6.42645264,14 6.44924925,14 C6.46490479,14 6.48014832,13.9986075 6.49525451,13.9965187 C6.58108519,13.9986075 6.66719054,14 6.75357054,14 L17.6484375,14 C17.8426209,14 18,13.8402793 18,13.6435179 L18,11.9184786 C18,11.7215779 17.8426209,11.5619965 17.6484375,11.5619965 L17.6484375,11.5619965 Z M1.94197082,1.53691141 C2.79437256,1.00553024 3.9346161,0.712964253 5.15313721,0.712964253 C6.371521,0.712964253 7.51190186,1.00553024 8.36416624,1.53691141 C9.16314697,2.03501166 9.60314941,2.6789075 9.60314941,3.35009647 C9.60314941,4.23865604 8.29824827,4.98935728 6.75370789,4.98935728 C6.65359495,4.98935728 6.55458068,4.98601526 6.45680236,4.97988819 C6.45680236,4.97988819 6.45680236,2.54815096 6.45680236,2.54787244 C6.45680236,2.50317293 6.44842529,2.45847343 6.43222048,2.41697666 C6.41175841,2.36503611 6.37934875,2.31810859 6.3380127,2.28092861 C6.30793761,2.25391393 6.27360536,2.23414033 6.2370758,2.21756947 C5.91751097,2.07260936 5.54328918,1.99560366 5.15313721,1.99560366 C4.05848693,1.99560366 3.20114138,2.59062245 3.20114138,3.35009647 C3.20114138,4.01167717 3.59349061,4.62062108 4.30609131,5.06483121 C4.965271,5.47589967 5.83456423,5.70232154 6.75370789,5.70232154 C7.67285156,5.70232154 8.54200744,5.47589967 9.20132445,5.06483121 C9.34936523,4.9725079 9.48339844,4.87308283 9.60314941,4.76753068 L9.60314941,6.98510015 L6.75370789,6.98510015 C5.10768127,6.98510015 3.56547547,6.58865306 2.41081239,5.86886549 C1.37850954,5.22510893 0.780990609,4.39879448 0.710266113,3.52527403 C0.705596906,3.46706717 0.703262288,3.40858185 0.703262288,3.35009647 C0.703125,2.67904674 1.14312744,2.03501166 1.94197082,1.53691141 Z M5.75367736,4.88060236 C4.68511963,4.64192645 3.90412902,4.03743857 3.90412902,3.35009647 C3.90412902,3.04736518 4.43833924,2.70870716 5.15313721,2.70870716 C5.3659973,2.70870716 5.56965636,2.73836758 5.75367736,2.79462491 L5.75367736,4.88060236 Z" id="Shape" fill="#42261D"></path>
                        <path d="M17.5,10 C17.2246094,10 17,10.2246093 17,10.5 C17,10.7753906 17.2246094,11 17.5,11 C17.7753906,11 18,10.7753906 18,10.5 C18,10.2246093 17.7753906,10 17.5,10 Z" id="Path" fill="#B22D00"></path>
                    </g>
                </g>
            </g>
        </g>
    </g>
</svg>