<?xml version="1.0" encoding="UTF-8"?>
<svg width="34px" height="22px" viewBox="0 0 34 22" version="1.1" xmlns="http://www.w3.org/2000/svg" xmlns:xlink="http://www.w3.org/1999/xlink">
    <!-- Generator: Sketch 58 (84663) - https://sketch.com -->
    <title>Shape</title>
    <desc>Created with Sketch.</desc>
    <g id="AnaPopova-Site" stroke="none" stroke-width="1" fill="none" fill-rule="evenodd">
        <g id="Home_page_APL-Copy" transform="translate(-12.000000, -1884.000000)" fill="#B22D00" fill-rule="nonzero">
            <g id="Slide-1-Colection" transform="translate(-587.000000, 1266.000000)">
                <g id="arrows" transform="translate(587.000000, 591.000000)">
                    <path d="M46,37.9992081 C45.9900406,37.6239419 45.8735659,37.3977189 45.7244639,37.2353541 L37.5392787,27.458017 C37.1526876,26.9289717 36.2764984,26.8452533 35.7287857,27.2748509 C35.18101,27.7044485 35.1519212,28.507699 35.591401,28.985725 L42.1041074,36.7770417 L13.2592544,36.7770417 C12.5637682,36.7770417 12,37.3242056 12,37.9992081 C12,38.6742106 12.5637682,39.2213745 13.2592544,39.2213745 L42.1041074,39.2213745 L35.591401,47.0126851 C35.0928622,47.4955019 35.2345283,48.342341 35.7607708,48.7966202 C36.1658099,49.1463432 37.2453687,49.0348816 37.5392787,48.5403931 L45.7244639,38.7630621 C45.9376242,38.5098292 46.0025198,38.3215545 46,37.9992081 Z" id="Shape" transform="translate(29.000000, 38.000000) scale(-1, 1) translate(-29.000000, -38.000000) "></path>
                </g>
            </g>
        </g>
    </g>
</svg>