<?xml version="1.0" encoding="UTF-8"?>
<svg width="48px" height="48px" viewBox="0 0 48 48" version="1.1" xmlns="http://www.w3.org/2000/svg" xmlns:xlink="http://www.w3.org/1999/xlink">
    <!-- Generator: Sketch 58 (84663) - https://sketch.com -->
    <title>Shape</title>
    <desc>Created with Sketch.</desc>
    <g id="AnaPopova-Site" stroke="none" stroke-width="1" fill="none" fill-rule="evenodd">
        <g id="Home_page_APL-Copy" transform="translate(-744.000000, -1013.000000)" fill="#B22D00" fill-rule="nonzero">
            <g id="Icons" transform="translate(0.000000, 901.000000)">
                <g id="Group-19" transform="translate(635.000000, 112.000000)">
                    <g id="flag" transform="translate(109.000000, 0.000000)">
                        <path d="M28.21875,8.4375 L28.21875,5.625 C28.21875,2.523375 25.695375,0 22.59375,0 L8.4375,0 L7.03125,0 L0,0 L0,48 L8.4375,48 L8.4375,28.3125 L16.96875,28.3125 L16.96875,31.125 C16.96875,34.226625 19.492125,36.75 22.59375,36.75 L48,36.75 L48,8.4375 L28.21875,8.4375 Z M5.625,45.1875 L2.8125,45.1875 L2.8125,2.8125 L5.625,2.8125 L5.625,45.1875 Z M22.59375,33.9375 C21.0429375,33.9375 19.78125,32.6758125 19.78125,31.125 L19.78125,28.3125 L22.59375,28.3125 C24.1445625,28.3125 25.40625,29.5741875 25.40625,31.125 C25.40625,32.6758125 24.1445625,33.9375 22.59375,33.9375 Z M25.40625,26.25675 C24.5781563,25.7764687 23.6179688,25.5 22.59375,25.5 L8.4375,25.5 L8.4375,2.8125 L22.59375,2.8125 C24.1445625,2.8125 25.40625,4.0741875 25.40625,5.625 L25.40625,26.25675 Z M45.1875,33.9375 L27.462,33.9375 C27.9422813,33.1094063 28.21875,32.1492188 28.21875,31.125 L28.21875,11.25 L45.1875,11.25 L45.1875,33.9375 Z" id="Shape"></path>
                    </g>
                </g>
            </g>
        </g>
    </g>
</svg>