<?xml version="1.0" encoding="UTF-8"?>
<svg width="66px" height="42px" viewBox="0 0 66 42" version="1.1" xmlns="http://www.w3.org/2000/svg" xmlns:xlink="http://www.w3.org/1999/xlink">
    <!-- Generator: Sketch 58 (84663) - https://sketch.com -->
    <title>shipped</title>
    <desc>Created with Sketch.</desc>
    <g id="AnaPopova-Site" stroke="none" stroke-width="1" fill="none" fill-rule="evenodd">
        <g id="Home_page_APL-Copy" transform="translate(-376.000000, -1014.000000)" fill="#B22D00" fill-rule="nonzero">
            <g id="Icons" transform="translate(0.000000, 901.000000)">
                <g id="Group-20" transform="translate(292.000000, 113.000000)">
                    <g id="shipped-2" transform="translate(84.000000, 0.000000)">
                        <g id="shipped">
                            <path d="M61.3797422,17.8063148 L59.6705742,10.9314074 C60.1378594,10.8315926 60.4884844,10.4147037 60.4884844,9.91524074 L60.4884844,8.80677778 C60.4884844,6.40007407 58.5413555,4.44214815 56.1482109,4.44214815 L48.3633047,4.44214815 L48.3633047,2.15574074 C48.3633047,0.971444444 47.4052734,0.00803703704 46.2275859,0.00803703704 L6.54482813,0.00803703704 C5.36714063,0.00803703704 4.40910938,0.971444444 4.40910938,2.15574074 L4.40910938,21 C4.40910938,21.5738704 4.87175391,22.0392407 5.44255078,22.0392407 C6.01321875,22.0392407 6.47599219,21.574 6.47599219,21 L6.47599219,2.15574074 C6.47599219,2.1175 6.50680078,2.08651852 6.54482813,2.08651852 L46.227457,2.08651852 C46.2654844,2.08651852 46.296293,2.1175 46.296293,2.15574074 L46.296293,21.0002593 C46.296293,21.5741296 46.7589375,22.0395 47.3297344,22.0395 C47.9004023,22.0395 48.3631758,21.5742593 48.3631758,21.0002593 L48.3631758,19.8221852 L60.5537109,19.8221852 C60.5547422,19.8221852 60.5555156,19.8224444 60.556418,19.8224444 C60.5574492,19.8224444 60.5583516,19.8223148 60.5592539,19.8223148 C62.0593359,19.8233519 63.3330586,20.813463 63.7705664,22.1778148 L60.5571914,22.1778148 C59.9865234,22.1778148 59.52375,22.6430556 59.52375,23.2170556 L59.52375,25.4339815 C59.52375,27.2294815 60.9762656,28.6901481 62.7617461,28.6901481 L63.9329883,28.6901481 L63.9329883,33.2625741 L61.2308555,33.2625741 C60.343207,30.6851481 57.90675,28.8285926 55.0456758,28.8285926 C52.1846016,28.8285926 49.7480156,30.6851481 48.8604961,33.2625741 L48.362918,33.2625741 L48.362918,25.4338519 C48.362918,24.8599815 47.9002734,24.3946111 47.3294766,24.3946111 C46.7588086,24.3946111 46.2960352,24.8598519 46.2960352,25.4338519 L46.2960352,33.2623148 L24.8553164,33.2623148 C23.967668,30.6848889 21.5312109,28.8283333 18.6701367,28.8283333 C15.8090625,28.8283333 13.3724766,30.6848889 12.484957,33.2623148 L6.54482813,33.2623148 C6.50680078,33.2623148 6.47599219,33.2313333 6.47599219,33.1930926 L6.47599219,30.9068148 L10.9540664,30.9068148 C11.5247344,30.9068148 11.9875078,30.4415741 11.9875078,29.8675741 C11.9875078,29.2935741 11.5248633,28.8283333 10.9540664,28.8283333 L1.03344141,28.8283333 C0.462773438,28.8283333 0,29.2935741 0,29.8675741 C0,30.4415741 0.462644531,30.9068148 1.03344141,30.9068148 L4.40923828,30.9068148 L4.40923828,33.1930926 C4.40923828,34.3773889 5.36726953,35.3407963 6.54495703,35.3407963 L12.1271133,35.3407963 C12.1268555,35.3638704 12.1253086,35.3868148 12.1253086,35.4100185 C12.1253086,39.0391296 15.0614063,41.9915741 18.6701367,41.9915741 C22.2788672,41.9915741 25.2149648,39.0391296 25.2149648,35.4100185 C25.2149648,35.3866852 25.213418,35.3638704 25.2131602,35.3407963 L48.5026523,35.3407963 C48.5023945,35.3638704 48.5008477,35.3868148 48.5008477,35.4100185 C48.5008477,39.0391296 51.4369453,41.9915741 55.0456758,41.9915741 C58.6544063,41.9915741 61.5905039,39.0391296 61.5905039,35.4100185 C61.5905039,35.3866852 61.588957,35.3638704 61.5886992,35.3407963 L64.9664297,35.3407963 C65.5370977,35.3407963 65.9998711,34.8755556 65.9998711,34.3015556 L65.9998711,23.2167963 C65.9998711,20.4800556 63.9920273,18.2062222 61.3797422,17.8063148 Z M48.3633047,6.5205 L56.1482109,6.5205 C57.4018242,6.5205 58.4217305,7.54612963 58.4217305,8.80677778 L58.4217305,8.876 L48.3633047,8.876 L48.3633047,6.5205 Z M48.3633047,17.7438333 L48.3633047,10.9543519 L57.5459414,10.9543519 L59.2338398,17.7438333 L48.3633047,17.7438333 Z M18.6701367,39.9134815 C16.2009375,39.9134815 14.1920625,37.893463 14.1920625,35.4102778 C14.1920625,32.9270926 16.2009375,30.9070741 18.6701367,30.9070741 C21.1393359,30.9070741 23.1482109,32.9270926 23.1482109,35.4102778 C23.1482109,37.893463 21.1393359,39.9134815 18.6701367,39.9134815 Z M55.0459336,39.9134815 C52.5767344,39.9134815 50.5678594,37.893463 50.5678594,35.4102778 C50.5678594,32.9270926 52.5767344,30.9070741 55.0459336,30.9070741 C57.5151328,30.9070741 59.5240078,32.9270926 59.5240078,35.4102778 C59.5240078,37.893463 57.5151328,39.9134815 55.0459336,39.9134815 Z M63.9332461,26.6116667 L62.7620039,26.6116667 C62.1161836,26.6116667 61.5907617,26.0832963 61.5907617,25.4338519 L61.5907617,24.256037 L63.9331172,24.256037 L63.9331172,26.6116667 L63.9332461,26.6116667 Z" id="Shape"></path>
                            <path d="M18.6701367,33.2625741 C17.4924492,33.2625741 16.534418,34.2259815 16.534418,35.4102778 C16.534418,36.5945741 17.4924492,37.5579815 18.6701367,37.5579815 C19.8478242,37.5579815 20.8058555,36.5945741 20.8058555,35.4102778 C20.8058555,34.2259815 19.8478242,33.2625741 18.6701367,33.2625741 Z" id="Path"></path>
                            <path d="M55.0459336,33.2625741 C53.8682461,33.2625741 52.9102148,34.2259815 52.9102148,35.4102778 C52.9102148,36.5945741 53.8682461,37.5579815 55.0459336,37.5579815 C56.2236211,37.5579815 57.1816523,36.5945741 57.1816523,35.4102778 C57.1816523,34.2259815 56.2236211,33.2625741 55.0459336,33.2625741 Z" id="Path"></path>
                            <path d="M42.920625,28.8287222 L27.4884844,28.8287222 C26.9178164,28.8287222 26.455043,29.293963 26.455043,29.867963 C26.455043,30.441963 26.9176875,30.9072037 27.4884844,30.9072037 L42.920625,30.9072037 C43.491293,30.9072037 43.9540664,30.441963 43.9540664,29.867963 C43.9540664,29.293963 43.4914219,28.8287222 42.920625,28.8287222 Z" id="Path"></path>
                            <path d="M16.465582,24.3947407 L3.23799609,24.3947407 C2.66732813,24.3947407 2.20455469,24.8599815 2.20455469,25.4339815 C2.20455469,26.0079815 2.66719922,26.4732222 3.23799609,26.4732222 L16.465582,26.4732222 C17.03625,26.4732222 17.4990234,26.0079815 17.4990234,25.4339815 C17.4990234,24.8599815 17.03625,24.3947407 16.465582,24.3947407 Z" id="Path"></path>
                            <path d="M35.9353242,10.2887037 C35.5318477,9.88296296 34.8773906,9.88296296 34.4739141,10.2888333 L25.2839297,19.5302593 L20.5031836,14.7226852 C20.0995781,14.3168148 19.44525,14.3168148 19.0417734,14.7226852 C18.638168,15.1285556 18.638168,15.7864259 19.0417734,16.1922963 L24.5532891,21.7347407 C24.7550273,21.9377407 25.019543,22.0391111 25.2839297,22.0391111 C25.5483164,22.0391111 25.8129609,21.9377407 26.0145703,21.7347407 L35.9351953,11.7584444 C36.3388008,11.3524444 36.3388008,10.6945741 35.9353242,10.2887037 Z" id="Path"></path>
                        </g>
                    </g>
                </g>
            </g>
        </g>
    </g>
</svg>