<?xml version="1.0" encoding="UTF-8"?>
<svg width="20px" height="16px" viewBox="0 0 20 16" version="1.1" xmlns="http://www.w3.org/2000/svg" xmlns:xlink="http://www.w3.org/1999/xlink">
    <!-- Generator: Sketch 58 (84663) - https://sketch.com -->
    <title>undo</title>
    <desc>Created with Sketch.</desc>
    <g id="AnaPopova-Site" stroke="none" stroke-width="1" fill="none" fill-rule="evenodd">
        <g id="One_product_APL---Copy-2" transform="translate(-311.000000, -249.000000)" fill="#42261D" fill-rule="nonzero">
            <g id="undo" transform="translate(311.000000, 249.000000)">
                <path d="M5.79039155,9.65891594 L1.97654583,5.49983919 L5.79039155,1.34076244 C6.09858274,1.0042932 6.06263522,0.493346978 5.70944876,0.199472696 C5.3562623,-0.0941310194 4.82021412,-0.0596144162 4.5114549,0.276584256 L0.209720942,4.96786606 C-0.0699069806,5.27252436 -0.0699069806,5.72738594 0.209720942,6.03204424 L4.51149548,10.7233647 C4.6795887,10.9061519 4.91478938,11 5.15136953,11 C5.34948664,11 5.54841521,10.9342136 5.70944876,10.8002057 C6.06267579,10.5063314 6.09886675,9.99538518 5.79039155,9.65891594 Z" id="Path"></path>
                <path d="M14.0597656,5 L0.817421875,5 C0.3659375,5 0,5.33879708 0,5.75687708 C0,6.17492092 0.3659375,6.51375417 0.817421875,6.51375417 L14.0597656,6.51375417 C16.4338281,6.51375417 18.3651563,8.30199654 18.3651563,10.5 C18.3651563,12.6980035 16.4338281,14.4862458 14.0597656,14.4862458 L1.90734375,14.4862458 C1.45585938,14.4862458 1.08992188,14.8250791 1.08992188,15.2431229 C1.08992188,15.6611668 1.45585938,16 1.90734375,16 L14.0597656,16 C17.3349219,16 20,13.532572 20,10.5 C20,7.46742797 17.3351953,5 14.0597656,5 Z" id="Path"></path>
            </g>
        </g>
    </g>
</svg>