<?xml version="1.0" encoding="UTF-8"?>
<svg width="31px" height="26px" viewBox="0 0 31 26" version="1.1" xmlns="http://www.w3.org/2000/svg" xmlns:xlink="http://www.w3.org/1999/xlink">
    <!-- Generator: Sketch 58 (84663) - https://sketch.com -->
    <title>Group 3</title>
    <desc>Created with Sketch.</desc>
    <g id="Symbols" stroke="none" stroke-width="1" fill="none" fill-rule="evenodd">
        <g id="project_20200129_150142" transform="translate(-1443.000000, -68.000000)" fill-rule="nonzero">
            <g transform="translate(-359.000000, -1053.000000)" id="Group-8">
                <g>
                    <g id="Group-16" transform="translate(355.500000, 1024.000000)">
                        <g id="Group-3" transform="translate(1446.000000, 97.000000)">
                            <path d="M31.5,7.921875 C31.5,10.4157986 30.1795015,12.9548611 27.5385045,15.5390625 L16.7611607,25.6953125 C16.5535714,25.8984375 16.2998512,26 16,26 C15.7001488,26 15.4464286,25.8984375 15.2388393,25.6953125 L4.44419643,15.5052083 C4.32886905,15.4149306 4.1702939,15.2682292 3.96847098,15.0651042 C3.76664807,14.8619792 3.44661458,14.4924045 3.00837054,13.9563802 C2.57012649,13.4203559 2.17801339,12.8702257 1.83203125,12.3059896 C1.48604911,11.7417535 1.17754836,11.0590278 0.906529018,10.2578125 C0.635509673,9.45659722 0.5,8.67795139 0.5,7.921875 C0.5,5.43923611 1.23232887,3.49826389 2.69698661,2.09895833 C4.16164435,0.699652778 6.18563988,0 8.76897321,0 C9.48400298,0 10.2134487,0.121310764 10.9573103,0.363932292 C11.7011719,0.606553819 12.3931362,0.933810764 13.0332031,1.34570313 C13.6732701,1.75759549 14.2239583,2.14409722 14.6852679,2.50520833 C15.1465774,2.86631944 15.5848214,3.25 16,3.65625 C16.4151786,3.25 16.8534226,2.86631944 17.3147321,2.50520833 C17.7760417,2.14409722 18.3267299,1.75759549 18.9667969,1.34570313 C19.6068638,0.933810764 20.2988281,0.606553819 21.0426897,0.363932292 C21.7865513,0.121310764 22.515997,0 23.2310268,0 C25.8143601,0 27.8383557,0.699652778 29.3030134,2.09895833 C30.7676711,3.49826389 31.5,5.43923611 31.5,7.921875 Z" id="Shape" fill="#FFE8DF" opacity="0.916666667"></path>
                            <path d="M29.7285714,7.62639287 C29.7285714,6.65683111 29.6004619,5.80098339 29.3442429,5.05884971 C29.0880239,4.31671602 28.760302,3.72719853 28.361077,3.29029725 C27.9618521,2.85339596 27.4762277,2.49729149 26.9042039,2.22198384 C26.3321801,1.94667618 25.7720734,1.76114276 25.2238839,1.66538357 C24.6756944,1.56962438 24.0917535,1.52174479 23.472061,1.52174479 C22.8523686,1.52174479 22.1850074,1.67436099 21.4699777,1.9795934 C20.7549479,2.2848258 20.0965247,2.66786254 19.494708,3.12870362 C18.8928912,3.5895447 18.377474,4.02046104 17.9484561,4.42145263 C17.5194382,4.82244422 17.1619234,5.19051859 16.8759115,5.52567573 C16.6614025,5.78901349 16.369432,5.92068237 16,5.92068237 C15.630568,5.92068237 15.3385975,5.78901349 15.1240885,5.52567573 C14.8380766,5.19051859 14.4805618,4.82244422 14.0515439,4.42145263 C13.622526,4.02046104 13.1071088,3.5895447 12.505292,3.12870362 C11.9034753,2.66786254 11.2450521,2.2848258 10.5300223,1.9795934 C9.81499256,1.67436099 9.14763145,1.52174479 8.52793899,1.52174479 C7.90824653,1.52174479 7.32430556,1.56962438 6.77611607,1.66538357 C6.22792659,1.76114276 5.66781994,1.94667618 5.09579613,2.22198384 C4.52377232,2.49729149 4.03814794,2.85339596 3.63892299,3.29029725 C3.23969804,3.72719853 2.91197607,4.31671602 2.65575707,5.05884971 C2.39953807,5.80098339 2.27142857,6.65683111 2.27142857,7.62639287 C2.27142857,9.63733576 3.38568328,11.7619927 5.61419271,14.0003636 L16,24.0550781 L26.3679315,14.0183185 C28.6083581,11.7679776 29.7285714,9.63733576 29.7285714,7.62639287 Z M31.5,7.921875 C31.5,10.4157986 30.1795015,12.9548611 27.5385045,15.5390625 L16.7611607,25.6953125 C16.5535714,25.8984375 16.2998512,26 16,26 C15.7001488,26 15.4464286,25.8984375 15.2388393,25.6953125 L4.44419643,15.5052083 C4.32886905,15.4149306 4.1702939,15.2682292 3.96847098,15.0651042 C3.76664807,14.8619792 3.44661458,14.4924045 3.00837054,13.9563802 C2.57012649,13.4203559 2.17801339,12.8702257 1.83203125,12.3059896 C1.48604911,11.7417535 1.17754836,11.0590278 0.906529018,10.2578125 C0.635509673,9.45659722 0.5,8.67795139 0.5,7.921875 C0.5,5.43923611 1.23232887,3.49826389 2.69698661,2.09895833 C4.16164435,0.699652778 6.18563988,0 8.76897321,0 C9.48400298,0 10.2134487,0.121310764 10.9573103,0.363932292 C11.7011719,0.606553819 12.3931362,0.933810764 13.0332031,1.34570313 C13.6732701,1.75759549 14.2239583,2.14409722 14.6852679,2.50520833 C15.1465774,2.86631944 15.5848214,3.25 16,3.65625 C16.4151786,3.25 16.8534226,2.86631944 17.3147321,2.50520833 C17.7760417,2.14409722 18.3267299,1.75759549 18.9667969,1.34570313 C19.6068638,0.933810764 20.2988281,0.606553819 21.0426897,0.363932292 C21.7865513,0.121310764 22.515997,0 23.2310268,0 C25.8143601,0 27.8383557,0.699652778 29.3030134,2.09895833 C30.7676711,3.49826389 31.5,5.43923611 31.5,7.921875 Z" id="Shape" fill="#42261D"></path>
                        </g>
                    </g>
                </g>
            </g>
        </g>
    </g>
</svg>