<?xml version="1.0" encoding="UTF-8"?>
<svg width="29px" height="25px" viewBox="0 0 29 25" version="1.1" xmlns="http://www.w3.org/2000/svg" xmlns:xlink="http://www.w3.org/1999/xlink">
    <!-- Generator: Sketch 52 (66869) - http://www.bohemiancoding.com/sketch -->
    <title>Artboard</title>
    <desc>Created with Sketch.</desc>
    <g id="Artboard" stroke="none" stroke-width="1" fill="none" fill-rule="evenodd">
        <g id="right-arrow-2-copy" transform="translate(14.500000, 12.500000) scale(-1, 1) translate(-14.500000, -12.500000) translate(1.000000, 4.000000)" fill="#43261D">
            <g id="right-arrow">
                <path d="M26.9230142,8.66556158 C26.9931134,8.49853448 26.9540891,8.30634236 26.8241781,8.17871675 L18.6622348,0.139307882 C18.4821194,-0.0320738916 18.1950486,-0.0271330049 18.0210547,0.150278325 C17.8513543,0.323376847 17.8513543,0.597763547 18.0210547,0.770820197 L25.4094413,8.04828571 L5.64576316,8.04828571 C5.39533603,8.04832759 5.19230769,8.24830788 5.19230769,8.49497537 C5.19230769,8.74164286 5.39533603,8.94162315 5.64576316,8.94162315 L25.4094413,8.94162315 L18.0219899,16.2181675 C17.8418745,16.3895493 17.8368583,16.6722685 18.0108522,16.8497217 C18.1848462,17.027133 18.4718745,17.032032 18.6520324,16.8606921 C18.6558158,16.8570911 18.6595142,16.8534483 18.66317,16.8497217 L26.8251134,8.81031281 C26.8670283,8.76881773 26.9003138,8.7196601 26.9230142,8.66556158 Z" id="Path"></path>
                <path d="M18.3420911,16.9809901 C18.091664,16.9814507 17.8882955,16.7818054 17.8878279,16.5351379 C17.8876154,16.4162217 17.9355668,16.3021207 18.0210547,16.2181256 L25.8628968,8.49497537 L18.0210547,0.771783251 C17.8470607,0.594371921 17.8520769,0.311610837 18.0321923,0.140229064 C18.2079291,-0.0269236453 18.486498,-0.0269236453 18.6621923,0.140229064 L26.8241356,8.17963793 C27.0011478,8.35403448 27.0011478,8.63675369 26.8241356,8.81119212 L18.6621923,16.850601 C18.5772571,16.9340936 18.4621397,16.9809901 18.3420911,16.9809901 Z" id="Path"></path>
                <path d="M26.395848,8.94158128 L0.561631712,8.94158128 C0.251462741,8.94158128 5.32907052e-14,8.74164286 5.32907052e-14,8.49497537 C5.32907052e-14,8.24830788 0.251462741,8.04832759 0.561631712,8.04832759 L26.3959007,8.04832759 C26.7060696,8.04832759 26.9575324,8.24830788 26.9575324,8.49497537 C26.9574797,8.74164286 26.706017,8.94158128 26.395848,8.94158128 Z" id="Path"></path>
            </g>
        </g>
    </g>
</svg>