<?xml version="1.0" encoding="UTF-8"?>
<svg width="6px" height="14px" viewBox="0 0 6 14" version="1.1" xmlns="http://www.w3.org/2000/svg" xmlns:xlink="http://www.w3.org/1999/xlink">
    <!-- Generator: Sketch 58 (84663) - https://sketch.com -->
    <title>Shape</title>
    <desc>Created with Sketch.</desc>
    <g id="AnaPopova-Site" stroke="none" stroke-width="1" fill="none" fill-rule="evenodd">
        <g id="Burger_375---new" transform="translate(-310.000000, -173.000000)" fill="#42261D" fill-rule="nonzero">
            <path d="M316,179.999496 C315.994424,179.76069 315.929214,179.61673 315.845738,179.513407 L311.263173,173.291465 C311.046736,172.9548 310.556192,172.901525 310.249549,173.174905 C309.942871,173.448285 309.926585,173.959445 310.172633,174.263643 L313.818842,179.221754 C314.053173,179.555878 314.170339,179.815125 314.170339,179.999496 C314.170339,180.183867 314.053173,180.443114 313.818842,180.777238 L310.172633,185.735345 C309.893521,186.042592 309.972834,186.58149 310.267456,186.870577 C310.494222,187.093127 311.098625,187.022197 311.263173,186.707523 L315.845738,180.485585 C315.965078,180.324437 316.001411,180.204626 316,179.999496 Z" id="Shape"></path>
        </g>
    </g>
</svg>