<svg
    width="24px"
    height="12px"
    viewBox="0 0 24 12"
    version="1.1"
    xmlns="http://www.w3.org/2000/svg"
    xmlns:xlink="http://www.w3.org/1999/xlink"
    >
    <g id="Symbols" stroke="none" stroke-width="1" fill="none" fill-rule="evenodd">
        <g id="Header--Jewelry" transform="translate(-1538.000000, -54.000000)" fill="#42261D">
            <g id="Header" transform="translate(5.000000, -129.000000)">
                <g id="Loungewear">
                    <g transform="translate(981.000000, 129.000000)">
                        <g id="Button-cos" transform="translate(541.000000, 29.000000)">
                            <g
                                id="left-arrow"
                                transform="translate(23.000000, 31.000000) scale(-1, 1) translate(-23.000000, -31.000000) translate(11.000000, 25.000000)"
                                >
                                <path
                                    d="M23.0625007,5.03225758 L3.20823416,5.03225758 L6.49716922,1.65367503 C6.86415332,1.27664256 6.86555957,0.663916412 6.50030984,0.285093618 C6.13506011,-0.0937775623 5.54143555,-0.0951807889 5.17445145,0.281803294 L0.275830079,5.31406419 C0.275501954,5.31435451 0.275267579,5.31469322 0.274986329,5.31498354 C-0.0910602746,5.69201601 -0.0922321487,6.30672603 0.274892579,6.68501657 C0.275220704,6.68530689 0.275455079,6.6856456 0.275736329,6.68593593 L5.1743577,11.7181968 C5.54129493,12.0951325 6.13491949,12.0938261 6.50021609,11.7149065 C6.86546582,11.3360837 6.86405957,10.7233575 6.49707547,10.3463251 L3.20823416,6.96774254 L23.0625007,6.96774254 C23.5802816,6.96774254 24,6.53448423 24,6 C24,5.46551588 23.5802816,5.03225758 23.0625007,5.03225758 Z"
                                    id="Path"
                                    ></path>
                            </g>
                        </g>
                    </g>
                </g>
            </g>
        </g>
    </g>
</svg>
