<?xml version="1.0" encoding="UTF-8"?>
<svg width="26px" height="24px" viewBox="0 0 26 24" version="1.1" xmlns="http://www.w3.org/2000/svg" xmlns:xlink="http://www.w3.org/1999/xlink">
    <!-- Generator: Sketch 58 (84663) - https://sketch.com -->
    <title>box (2)</title>
    <desc>Created with Sketch.</desc>
    <g id="AnaPopova-Site" stroke="none" stroke-width="1" fill="none" fill-rule="evenodd">
        <g id="One_product_APL---Copy-2" transform="translate(-1147.000000, -1179.000000)" fill="#42261D" fill-rule="nonzero">
            <g id="3" transform="translate(1142.000000, 898.000000)">
                <g id="Dop.informatia">
                    <g id="Group-10" transform="translate(5.000000, 281.000000)">
                        <g id="box-(2)" transform="translate(13.000000, 12.000000) scale(-1, 1) translate(-13.000000, -12.000000) ">
                            <path d="M23.1092704,8.50232589 L25.8512684,5.8426737 C25.9643364,5.73319365 26.0174982,5.57830543 25.9948846,5.42495647 C25.9724693,5.27160751 25.8766591,5.13730688 25.7366135,5.06265268 L22.4401856,3.30693204 C22.1944115,3.17609477 21.8857557,3.26325547 21.7506692,3.50164867 C21.615781,3.74023427 21.705442,4.03962072 21.9514145,4.17045799 L24.6547313,5.61024514 L22.3015285,7.89258577 L13.8378933,3.38466476 L16.1908978,1.10232409 L18.5694913,2.36932907 C18.8152654,2.50016633 19.1241195,2.41319808 19.2590077,2.17461248 C19.3940941,1.93621927 19.3042349,1.63664038 19.0582624,1.50580312 L16.3456224,0.0608209889 C16.1476542,-0.0446184544 15.9016817,-0.0105622961 15.7421964,0.144325974 L13,2.80417062 L10.2578036,0.144325974 C10.0981199,-0.0105622961 9.85214742,-0.0444260589 9.65437763,0.0608209889 L0.263386533,5.06265268 C0.123340939,5.13730688 0.0275306798,5.27141507 0.00511540804,5.42495647 C-0.0174981651,5.57830543 0.035663628,5.73319365 0.148731646,5.8426737 L2.89072961,8.50232589 L0.148731646,11.1617857 C0.035663628,11.2714581 -0.0174981651,11.426154 0.00511540804,11.5796954 C0.0275306798,11.7330443 0.123340939,11.867345 0.263386533,11.9418067 L3.10119476,13.4533619 L3.10119476,18.5056045 C3.10119476,18.6855057 3.20216253,18.8509764 3.36462335,18.9375599 L12.7556144,23.9391992 C12.8317866,23.9797972 12.9158933,24 13,24 C13.0841067,24 13.1682134,23.9797972 13.2443856,23.9391992 L22.6353767,18.9375599 C22.7978375,18.8509764 22.8988052,18.6855057 22.8988052,18.5056045 L22.8988052,13.4533619 L25.7366135,11.9419991 C25.8766591,11.867345 25.9724693,11.7330443 25.9948846,11.5796954 C26.0174982,11.4263464 25.9643364,11.2714581 25.8512684,11.1619781 L23.1092704,8.50232589 Z M13,12.9419422 L4.66411182,8.5021335 L13,4.06213242 L21.3358882,8.5021335 L13,12.9419422 Z M9.8093006,1.10232409 L12.1621067,3.38466476 L3.69847148,7.89258577 L1.34546707,5.61024514 L9.8093006,1.10232409 Z M3.69886824,9.11187362 L12.1625034,13.6197946 L9.8093006,15.9023277 L1.34546707,11.3944067 L3.69886824,9.11187362 Z M21.883177,18.2142991 L13.5078141,22.6750803 L13.5078141,17.639962 C13.5078141,17.3678975 13.280488,17.1473982 13,17.1473982 C12.719512,17.1473982 12.4921859,17.3678975 12.4921859,17.639962 L12.4921859,22.6750803 L4.11682304,18.2142991 L4.11682304,13.9944125 L9.65437763,16.9438308 C9.73114481,16.9846212 9.81525153,17.0046316 9.89856478,17.0046316 C10.0300807,17.0046316 10.1602081,16.9549905 10.2578036,16.8603259 L13,14.2004812 L15.7421964,16.8603259 C15.8397919,16.9551829 15.9699193,17.0046316 16.1014352,17.0046316 C16.1847485,17.0046316 16.2688552,16.9846212 16.3456224,16.9438308 L21.883177,13.9944125 L21.883177,18.2142991 Z M16.1908978,15.9023277 L13.837695,13.6196022 L22.3013301,9.11187362 L24.6547313,11.3942143 L16.1908978,15.9023277 Z" id="Shape"></path>
                            <path d="M19.5,3 C19.6314453,3 19.7599609,2.9464844 19.8535156,2.85332035 C19.9464844,2.76035155 20,2.63144535 20,2.5 C20,2.3683594 19.9464844,2.23945315 19.8535156,2.1464844 C19.7605469,2.05332035 19.6314453,2 19.5,2 C19.3679687,2 19.2394531,2.05332035 19.1464844,2.1464844 C19.0529297,2.23945315 19,2.3683594 19,2.5 C19,2.63144535 19.0529297,2.76035155 19.1464844,2.85332035 C19.2394531,2.9464844 19.3685547,3 19.5,3 Z" id="Path"></path>
                            <path d="M12.5,15 C12.3685547,15 12.2394531,15.0533204 12.1464844,15.1464844 C12.0535156,15.2398438 12,15.3683594 12,15.5 C12,15.631836 12.0535156,15.7603515 12.1464844,15.8539062 C12.2394531,15.946875 12.3685547,16 12.5,16 C12.6314453,16 12.7605469,15.946875 12.8535156,15.8539062 C12.9464844,15.7603515 13,15.631836 13,15.5 C13,15.3683594 12.9464844,15.2398438 12.8535156,15.1464844 C12.7605469,15.0533204 12.6314453,15 12.5,15 Z" id="Path"></path>
                        </g>
                    </g>
                </g>
            </g>
        </g>
    </g>
</svg>