<?xml version="1.0" encoding="UTF-8"?>
<svg width="24px" height="23px" viewBox="0 0 24 23" version="1.1" xmlns="http://www.w3.org/2000/svg" xmlns:xlink="http://www.w3.org/1999/xlink">
    <!-- Generator: Sketch 58 (84663) - https://sketch.com -->
    <title>home</title>
    <desc>Created with Sketch.</desc>
    <g id="Symbols" stroke="none" stroke-width="1" fill="none" fill-rule="evenodd">
        <g id="Topbar" transform="translate(-83.000000, -16.000000)" fill="#42261D" fill-rule="nonzero">
            <g id="Group-2">
                <g>
                    <g id="home" transform="translate(83.000000, 16.000000)">
                        <path d="M23.3554722,10.003891 C23.3547397,10.0033646 23.3541903,10.0026627 23.3536409,10.0021362 L13.5625519,0.620307934 C13.1452123,0.220222484 12.5903467,0 12.0001381,0 C11.4099296,0 10.855064,0.220222484 10.4375413,0.620307934 L0.651579744,9.99739837 C0.648283489,10.000557 0.644804122,10.003891 0.641691026,10.0070496 C-0.215329135,10.8330155 -0.213864144,12.1731262 0.645902889,12.9969864 C1.03870378,13.373558 1.55731086,13.5914993 2.11199334,13.6144867 C2.13470071,13.6165924 2.15740808,13.6176453 2.18029857,13.6176453 L2.57035264,13.6176453 L2.57035264,20.5219269 C2.57035264,21.8883591 3.73062609,23 5.15661242,23 L8.98719952,23 C9.37560549,23 9.69039555,22.6981812 9.69039555,22.3261719 L9.69039555,16.9130859 C9.69039555,16.2896195 10.219807,15.7824936 10.8704464,15.7824936 L13.1298299,15.7824936 C13.7804694,15.7824936 14.3096976,16.2896195 14.3096976,16.9130859 L14.3096976,22.3261719 C14.3096976,22.6981812 14.6244877,23 15.0128937,23 L18.8434808,23 C20.2696502,23 21.4297406,21.8883591 21.4297406,20.5219269 L21.4297406,13.6176453 L21.7915935,13.6176453 C22.3816189,13.6176453 22.9364845,13.3974228 23.3541903,12.9971619 C24.2148729,12.1720734 24.2152392,10.8295059 23.3554722,10.003891 L23.3554722,10.003891 Z M22.359644,12.0443268 C22.2078343,12.1897965 22.0060316,12.269989 21.7915935,12.269989 L20.7265445,12.269989 C20.3381386,12.269989 20.0233485,12.5716324 20.0233485,12.9438171 L20.0233485,20.5219269 C20.0233485,21.1452179 19.4941202,21.6523438 18.8434808,21.6523438 L15.7160897,21.6523438 L15.7160897,16.9130859 C15.7160897,15.5466537 14.5559994,14.4348373 13.1298299,14.4348373 L10.8704464,14.4348373 C9.44427694,14.4348373 8.28400349,15.5466537 8.28400349,16.9130859 L8.28400349,21.6523438 L5.15661242,21.6523438 C4.5061561,21.6523438 3.9767447,21.1452179 3.9767447,20.5219269 L3.9767447,12.9438171 C3.9767447,12.5716324 3.66195459,12.269989 3.27354867,12.269989 L2.22681208,12.269989 C2.21582464,12.2692871 2.20502031,12.2687607 2.19384976,12.2685852 C1.98435595,12.2650757 1.78786394,12.1854095 1.64063227,12.0441513 C1.32749027,11.7440872 1.32749027,11.2557373 1.64063227,10.9554977 C1.64081539,10.9554977 1.64081539,10.9553223 1.6409985,10.9551468 L1.64154788,10.9546204 L11.4322707,1.57314299 C11.5838974,1.42767334 11.7855169,1.34765625 12.0001381,1.34765625 C12.2145763,1.34765625 12.4161958,1.42767334 12.5680056,1.57314299 L22.3565309,10.9526901 C22.3579959,10.9540939 22.359644,10.9554977 22.361109,10.9569015 C22.6726029,11.257492 22.6720535,11.7447891 22.359644,12.0443268 Z" id="Shape"></path>
                    </g>
                </g>
            </g>
        </g>
    </g>
</svg>