<?xml version="1.0" encoding="UTF-8"?>
<svg width="22px" height="22px" viewBox="0 0 22 22" version="1.1" xmlns="http://www.w3.org/2000/svg" xmlns:xlink="http://www.w3.org/1999/xlink">
    <!-- Generator: Sketch 58 (84663) - https://sketch.com -->
    <title>Shape Copy</title>
    <desc>Created with Sketch.</desc>
    <g id="Symbols" stroke="none" stroke-width="1" fill="none" fill-rule="evenodd">
        <g id="Footer-37" transform="translate(-340.000000, -194.000000)" fill="#B22D00" fill-rule="nonzero">
            <g id="Footer" transform="translate(0.000000, 17.000000)">
                <g id="Group-7" transform="translate(12.000000, 175.000000)">
                    <path d="M339.622671,13.6126256 L349.398524,13.6126305 C349.732388,13.606822 350,13.3342543 350,13.0000174 C350,12.6657805 349.732388,12.3932131 349.398525,12.3874048 L339.622671,12.3873999 L339.622709,2.60205747 C339.616907,2.26787105 339.344603,2 339.010689,2 C338.676776,2 338.404471,2.26787151 338.398669,2.60205794 L338.39863,12.3874004 L328.622751,12.3873695 C328.401561,12.3835214 328.195509,12.4994359 328.08379,12.6905611 C327.97207,12.8816864 327.97207,13.1182788 328.083789,13.309404 C328.195509,13.5005291 328.401561,13.6164434 328.62275,13.6125952 L338.39863,13.6126261 L338.398617,23.3979425 C338.40442,23.732129 338.676724,24 339.010637,24 C339.344551,24 339.616855,23.7321285 339.622658,23.3979421 L339.622671,13.6126256 Z" id="Shape-Copy"></path>
                </g>
            </g>
        </g>
    </g>
</svg>