<?xml version="1.0" encoding="UTF-8"?>
<svg width="23px" height="22px" viewBox="0 0 23 22" version="1.1" xmlns="http://www.w3.org/2000/svg" xmlns:xlink="http://www.w3.org/1999/xlink">
    <!-- Generator: Sketch 58 (84663) - https://sketch.com -->
    <title>Shape</title>
    <desc>Created with Sketch.</desc>
    <g id="AnaPopova-Site" stroke="none" stroke-width="1" fill="none" fill-rule="evenodd">
        <g id="Category_one._375-Copy" transform="translate(-327.000000, -146.000000)" fill="#42261D" fill-rule="nonzero">
            <g id="filter" transform="translate(12.000000, 129.000000)">
                <g id="Group" transform="translate(108.000000, 15.000000)">
                    <path d="M218.87774,12.9924551 L225.827254,6.04294793 C226.060468,5.80148423 226.057132,5.41766559 225.819758,5.18029118 C225.582384,4.94291676 225.198566,4.93958148 224.957102,5.17279492 L218.007588,12.1223021 L211.058086,5.17274569 C210.816623,4.93953225 210.432804,4.94286753 210.19543,5.18024195 C209.958056,5.41761636 209.954721,5.801435 210.187934,6.0428987 L217.137436,12.9924551 L210.187885,19.9419623 C210.027912,20.0964695 209.963754,20.3252714 210.020071,20.5404277 C210.076388,20.7555841 210.244416,20.9236116 210.459572,20.9799287 C210.674728,21.0362459 210.90353,20.9720884 211.058037,20.8121153 L218.007588,13.8626081 L224.95709,20.8121276 C225.198553,21.045341 225.582372,21.0420057 225.819746,20.8046313 C226.05712,20.5672569 226.060455,20.1834383 225.827242,19.9419746 L218.87774,12.9924551 Z" id="Shape" transform="translate(218.000000, 13.000000) rotate(-315.000000) translate(-218.000000, -13.000000) "></path>
                </g>
            </g>
        </g>
    </g>
</svg>