<?xml version="1.0" encoding="UTF-8"?>
<svg width="17px" height="14px" viewBox="0 0 17 14" version="1.1" xmlns="http://www.w3.org/2000/svg" xmlns:xlink="http://www.w3.org/1999/xlink">
    <!-- Generator: Sketch 58 (84663) - https://sketch.com -->
    <title>Shape</title>
    <desc>Created with Sketch.</desc>
    <g id="AnaPopova-Site" stroke="none" stroke-width="1" fill="none" fill-rule="evenodd">
        <g id="Prod_One_375---Added-to-cart-new2select-size" transform="translate(-285.000000, -441.000000)" fill="#42261D" fill-rule="nonzero">
            <g id="Size" transform="translate(0.000000, 429.000000)">
                <g id="sizeguide" transform="translate(285.000000, 12.547059)">
                    <g id="ruler">
                        <path d="M15.8922837,10.7264236 C15.717423,10.7264236 15.5757043,10.8744723 15.5757043,11.0571432 L15.5757043,12.3267962 L13.6861213,12.3267962 L13.6861213,10.0997359 C13.6861213,9.91706502 13.5444026,9.76901636 13.3695419,9.76901636 C13.194805,9.76901636 13.0529626,9.91706502 13.0529626,10.0997359 L13.0529626,12.3267962 L11.1654818,12.3267962 L11.1654818,10.0997359 C11.1654818,9.91706502 11.0237631,9.76901636 10.8489025,9.76901636 C10.6740419,9.76901636 10.5323231,9.91706502 10.5323231,10.0997359 L10.5323231,12.3267962 L8.64484236,12.3267962 L8.64484236,10.0997359 C8.64484236,9.91706502 8.503,9.76901636 8.32826301,9.76901636 C8.15340239,9.76901636 8.01168365,9.91706502 8.01168365,10.0997359 L8.01168365,12.3267962 L6.12407924,12.3267962 L6.12407924,10.0997359 C6.12407924,9.91706502 5.98236053,9.76901636 5.80749988,9.76901636 C5.63263927,9.76901636 5.49092052,9.91706502 5.49092052,10.0997359 L5.49092052,12.3069014 C4.98031266,12.2725375 4.4854101,12.1939917 4.01746624,12.0739766 L4.01746624,10.0997359 C4.01746624,9.91706502 3.87562384,9.76901636 3.70088688,9.76901636 C3.52602624,9.76901636 3.38430753,9.91706502 3.38430753,10.0997359 L3.38430753,11.8805832 C2.94418801,11.7229746 2.53597378,11.5255764 2.17091821,11.2912306 C2.15298694,11.2796037 2.13542669,11.2678477 2.11774276,11.2562208 L2.11774276,9.25756373 C2.11774276,9.07502205 1.97602405,8.92684418 1.8011634,8.92684418 C1.62630279,8.92684418 1.48458404,9.07502205 1.48458404,9.25756373 L1.48458404,10.7526486 C0.930693858,10.2158753 0.633158713,9.59603452 0.633158713,8.95436107 L0.633158713,4.91699878 C0.639341888,4.92526677 0.645896093,4.93340558 0.652202924,4.94167357 C0.660364751,4.95239612 0.668526579,4.96298947 0.67681203,4.97371202 C0.690786033,4.99166907 0.705131067,5.0094969 0.719599725,5.02732477 C0.727390521,5.03688462 0.735057693,5.04657368 0.742972177,5.05613352 C0.761150765,5.07809538 0.779700321,5.09992803 0.79849722,5.1216315 C0.802949118,5.126799 0.807153703,5.13196649 0.8116056,5.13713398 C0.834978053,5.16387577 0.858968816,5.19048834 0.883330611,5.21697177 C0.890132128,5.22433543 0.897180957,5.2316991 0.904106131,5.23906277 C0.92191372,5.25818253 0.93996862,5.27717304 0.958270864,5.29616359 C0.967422002,5.30559425 0.976820452,5.31489574 0.986095246,5.32432644 C1.00278984,5.34112078 1.01960811,5.35791511 1.03667374,5.37470948 C1.04656684,5.38439854 1.05670726,5.39421678 1.06684771,5.40390583 C1.08403698,5.42044181 1.10159723,5.43697779 1.11915747,5.45338455 C1.12905058,5.46255686 1.13894368,5.47172917 1.14908413,5.48090145 C1.16911769,5.49937524 1.18964586,5.51759068 1.21029773,5.53580608 C1.21808852,5.54252383 1.22563204,5.54949992 1.23342287,5.55621767 C1.26198918,5.58102163 1.29092653,5.60569642 1.32048219,5.63011282 C1.32629437,5.63502195 1.33235392,5.63980187 1.33828978,5.6445818 C1.36203323,5.66408909 1.38614765,5.68359638 1.41050945,5.70284529 C1.42114452,5.71124246 1.43202693,5.71963962 1.44278569,5.72803682 C1.4629429,5.74366848 1.48322373,5.75917096 1.50375194,5.77467344 C1.51587098,5.78371654 1.52799005,5.79275967 1.54010912,5.80167358 C1.5602663,5.81665931 1.58067085,5.83151586 1.60119903,5.84624324 C1.61344175,5.85502794 1.62556079,5.8636835 1.63780351,5.87233906 C1.660063,5.88797072 1.68256983,5.9034732 1.70520028,5.91910485 C1.71595904,5.92633934 1.72659411,5.93370305 1.73735287,5.94106672 C1.77098943,5.96367451 1.80487333,5.9860239 1.83925185,6.00811495 C2.97732992,6.73918603 4.48392613,7.1417337 6.08153889,7.1417337 L15.5757043,7.1417337 L15.5757043,8.41138677 C15.5757043,8.59405763 15.717423,8.74210632 15.8922837,8.74210632 C16.0671443,8.74210632 16.208863,8.59405763 16.208863,8.41138677 L16.208863,6.81101415 C16.208863,6.62834329 16.0671443,6.48029459 15.8922837,6.48029459 L9.2807217,6.48029459 L9.2807217,3.10798866 C9.2807217,2.24695514 8.77740997,1.44948179 7.86353442,0.862454584 C6.9976404,0.306303157 5.85300816,0 4.64036085,0 C3.42771353,0 2.28295761,0.306303157 1.41718728,0.862454584 C0.503311727,1.44935261 0,2.24695514 0,3.10798866 L0,8.95436107 C0,10.0627883 0.653192234,11.0926697 1.83925185,11.8546165 C2.89769042,12.5344002 4.27493428,12.9299718 5.74764663,12.9820343 C5.76706184,12.9860391 5.7869717,12.9882353 5.80749988,12.9882353 C5.82159757,12.9882353 5.83532426,12.9869434 5.84892727,12.9850056 C5.92621714,12.9869434 6.00375436,12.9882353 6.08153889,12.9882353 L15.8922837,12.9882353 C16.0671443,12.9882353 16.208863,12.8400575 16.208863,12.6575157 L16.208863,11.0571432 C16.208863,10.8744723 16.0671443,10.7264236 15.8922837,10.7264236 L15.8922837,10.7264236 Z M1.74872994,1.4258405 C2.51631123,0.932861668 3.54309186,0.661439106 4.64036085,0.661439106 C5.73750618,0.661439106 6.76441047,0.932861668 7.53186806,1.4258405 C8.25134413,1.88794359 8.64756298,2.48530578 8.64756298,3.10798866 C8.64756298,3.932333 7.47250943,4.62878188 6.08166257,4.62878188 C5.99151163,4.62878188 5.90235003,4.62568139 5.8143014,4.61999711 C5.8143014,4.61999711 5.8143014,2.36399887 5.8143014,2.36374048 C5.8143014,2.32227136 5.80675791,2.28080224 5.7921656,2.2423044 C5.77373967,2.19411753 5.74455501,2.15058141 5.70733221,2.11608839 C5.68024983,2.09102603 5.64933389,2.07268145 5.6164393,2.05730815 C5.3286736,1.92282415 4.99168973,1.85138357 4.64036085,1.85138357 C3.6546366,1.85138357 2.88260345,2.403401 2.88260345,3.10798866 C2.88260345,3.72175765 3.23591095,4.28669384 3.87760246,4.6988014 C4.47118875,5.08016238 5.25398069,5.29022099 6.08166257,5.29022099 C6.90934445,5.29022099 7.69201271,5.08016238 8.28572266,4.6988014 C8.41903226,4.61315019 8.53972814,4.52091046 8.64756298,4.42298645 L8.64756298,6.48029459 L6.08166257,6.48029459 C4.59942812,6.48029459 3.21068354,6.1124983 2.17091821,5.444729 C1.24133735,4.84749602 0.703276102,4.08089841 0.639589231,3.27050633 C0.635384646,3.21650601 0.63328234,3.16224737 0.63328234,3.10798866 C0.633158713,2.48543496 1.02937756,1.88794359 1.74872994,1.4258405 Z M5.18114269,4.52788656 C4.21891458,4.3064595 3.51563848,3.74565729 3.51563848,3.10798866 C3.51563848,2.82713543 3.99669072,2.51295185 4.64036085,2.51295185 C4.83203974,2.51295185 5.01543318,2.54046874 5.18114269,2.59266042 L5.18114269,4.52788656 Z" id="Shape"></path>
                    </g>
                </g>
            </g>
        </g>
    </g>
</svg>