<?xml version="1.0" encoding="UTF-8"?>
<svg width="17px" height="16px" viewBox="0 0 17 16" version="1.1" xmlns="http://www.w3.org/2000/svg" xmlns:xlink="http://www.w3.org/1999/xlink">
    <!-- Generator: Sketch 58 (84663) - https://sketch.com -->
    <title>Shape</title>
    <desc>Created with Sketch.</desc>
    <g id="AnaPopova-Site" stroke="none" stroke-width="1" fill="none" fill-rule="evenodd">
        <g id="Burger_375---new" transform="translate(-261.000000, -67.000000)" fill="#42261D" fill-rule="nonzero">
            <g id="Search" transform="translate(13.000000, 57.000000)">
                <path d="M265,25.0291667 L259.984115,20.3041667 C260.904948,19.2208333 261.458333,17.8416667 261.458333,16.3416667 C261.458333,12.8375 258.44349,10 254.729167,10 C251.010417,10 248,12.8416667 248,16.3416667 C248,19.8416667 251.014844,22.6833333 254.729167,22.6833333 C256.331771,22.6833333 257.801562,22.1541667 258.957031,21.275 L263.96849,26 L265,25.0291667 Z M250.470313,20.3583333 C249.332552,19.2875 248.708333,17.8625 248.708333,16.3458333 C248.708333,14.8291667 249.336979,13.4041667 250.470313,12.3333333 C251.603646,11.2625 253.122135,10.6666667 254.729167,10.6666667 C256.336198,10.6666667 257.85026,11.2583333 258.988021,12.3291667 C260.125781,13.4 260.75,14.825 260.75,16.3416667 C260.75,17.8583333 260.121354,19.2833333 258.988021,20.3541667 C257.85026,21.425 256.336198,22.0166885 254.729167,22.0166885 C253.122135,22.0208333 251.608073,21.4291667 250.470313,20.3583333 Z" id="Shape"></path>
            </g>
        </g>
    </g>
</svg>