<?xml version="1.0" encoding="UTF-8"?>
<svg width="18px" height="12px" viewBox="0 0 18 12" version="1.1" xmlns="http://www.w3.org/2000/svg" xmlns:xlink="http://www.w3.org/1999/xlink">
    <!-- Generator: Sketch 58 (84663) - https://sketch.com -->
    <title>Shape</title>
    <desc>Created with Sketch.</desc>
    <g id="AnaPopova-Site" stroke="none" stroke-width="1" fill="none" fill-rule="evenodd">
        <g id="Home_Page_375" transform="translate(-13.000000, -228.000000)" fill="#FFFFFF" fill-rule="nonzero">
            <g id="Banner" transform="translate(1.000000, 0.000000)">
                <g id="Group-3-Copy" transform="translate(12.000000, 228.000000)">
                    <path d="M18,5.99956805 C17.9947274,5.7948774 17.9330643,5.67148304 17.8541279,5.58292042 L13.5207946,0.249827452 C13.3161287,-0.0387426945 12.8522639,-0.0844072745 12.5622983,0.149918685 C12.2722994,0.384244644 12.2568995,0.822381289 12.4895653,1.08312271 L15.9374686,5.33293184 L0.6666641,5.33293184 C0.298465518,5.33293184 0,5.63138487 0,5.99956805 C0,6.36775122 0.298465518,6.66620425 0.6666641,6.66620425 L15.9374686,6.66620425 L12.4895653,10.9160101 C12.2256329,11.1793647 12.3006326,11.6412769 12.5792316,11.8890656 C12.7936641,12.0798235 13.3651952,12.0190263 13.5207946,11.7493053 L17.8541279,6.41621568 C17.9669775,6.27808865 18.001334,6.17539335 18,5.99956805 Z" id="Shape" transform="translate(9.000000, 6.000000) scale(-1, 1) translate(-9.000000, -6.000000) "></path>
                </g>
            </g>
        </g>
    </g>
</svg>