<?xml version="1.0" encoding="UTF-8"?>
<svg width="28px" height="28px" viewBox="0 0 28 28" version="1.1" xmlns="http://www.w3.org/2000/svg" xmlns:xlink="http://www.w3.org/1999/xlink">
    <!-- Generator: Sketch 58 (84663) - https://sketch.com -->
    <title>swipe left Right</title>
    <desc>Created with Sketch.</desc>
    <g id="AnaPopova-Site" stroke="none" stroke-width="1" fill="none" fill-rule="evenodd">
        <g id="Prod_One_375---Added-to-cart-new2" transform="translate(-13.000000, -506.000000)">
            <g id="Dascription-" transform="translate(0.000000, 506.000000)">
                <g id="Group-9">
                    <g id="swipe-left-Right" transform="translate(13.000000, 0.000000)">
                        <rect id="Rectangle" stroke="#85736B" x="0.5" y="0.5" width="27" height="27"></rect>
                        <g id="swipe-(1)-2" transform="translate(3.000000, 3.500000)" fill="#85736B" fill-rule="nonzero">
                            <g id="swipe-(1)" transform="translate(0.000000, 0.500000)">
                                <path d="M19.0135237,7.25054369 L18.9792026,7.25054369 C18.5036099,7.25212462 18.0464978,7.42251071 17.7010237,7.72674652 C17.4313578,6.99285664 16.716083,6.4671189 15.8757813,6.4671189 C15.3553071,6.47344251 14.8606681,6.67913544 14.5085937,7.03606799 C14.1904633,6.4107334 13.5334591,5.99144304 12.7761315,5.99144304 L12.7395474,5.99144304 C12.3037446,5.99144304 11.8794451,6.11229422 11.5897899,6.35259133 L11.5897899,1.90621654 C11.5897899,0.855092345 10.7147899,0 9.646875,0 C8.58009161,0 7.70848598,0.854389722 7.70773167,1.9048113 L7.69943426,10.698491 L7.12672414,10.0499699 C6.66584052,9.51544936 5.98714977,9.18345991 5.25320581,9.13322237 C4.53397092,9.08737623 3.82642781,9.3206471 3.29822196,9.77770343 L2.83677264,10.1342847 C2.69665948,10.2424886 2.65668103,10.4271028 2.74059805,10.5772885 L7.22817886,18.6026499 C8.04453126,20.063579 9.5974677,20.9657471 11.2808998,20.9657471 L16.3142241,20.9657471 C18.8666218,20.9657471 20.9453125,18.9107501 20.9479526,16.3779694 C20.949084,15.2463949 20.9504041,14.4046524 20.9511584,13.7190679 C20.9537985,11.8731012 20.9547414,11.1829497 20.9496498,9.1509636 C20.9470097,8.10264989 20.0786099,7.25054369 19.0135237,7.25054369 L19.0135237,7.25054369 Z M20.1787446,13.7208244 C20.1779903,14.4064089 20.1766702,15.2456922 20.1755388,16.3772668 C20.1732759,18.5135924 18.4411907,20.246261 16.3142241,20.246261 L11.2808998,20.246261 C9.88636851,20.246261 8.59593212,19.4925221 7.91309265,18.2706605 L3.56939655,10.5001756 L3.79832977,10.3248712 C3.80323276,10.3210067 3.80832437,10.3176693 3.81303879,10.3134535 C4.18585667,9.98673383 4.68785023,9.81898255 5.1987069,9.85077623 C5.72050109,9.88801526 6.2025054,10.1256775 6.52893321,10.5068506 L7.78467132,11.930892 C7.88820046,12.0482301 8.05961747,12.0923196 8.2131196,12.0412039 C8.36662178,11.990088 8.46920799,11.8546574 8.46939655,11.7027151 L8.47675109,1.90551392 C8.47712822,1.25172312 9.00571121,0.719661726 9.64725218,0.719661726 C10.2886045,0.719661726 10.8173761,1.25189877 10.8173761,1.90621654 L10.8173761,7.81422312 C10.8173761,7.83459915 10.8164332,7.85497526 10.8164332,7.87552698 C10.8164332,7.88448543 10.8173761,7.89291691 10.8173761,7.90152403 L10.8173761,10.4279812 C10.8173761,10.6266478 10.9903017,10.7877242 11.203583,10.7877242 C11.4168642,10.7877242 11.5897899,10.6266478 11.5897899,10.4279812 L11.5897899,7.82634336 C11.5897899,7.19503646 12.1142241,6.71092912 12.7395474,6.71092912 L12.7761315,6.71092912 C13.4176724,6.71092912 13.9553071,7.22156049 13.9553071,7.87605396 L13.9553071,10.1869814 C13.9553071,10.3856481 14.1282328,10.5467244 14.341514,10.5467244 C14.5547953,10.5467244 14.7277209,10.3856481 14.7277209,10.1869814 L14.7277209,8.37368678 C14.7277209,7.71936896 15.2429149,7.18695631 15.8882274,7.18695631 C16.5299569,7.18695631 17.0449623,7.71936896 17.0449623,8.37368678 L17.0449623,10.0843984 C17.0449623,10.2830651 17.2178879,10.4441414 17.4311692,10.4441414 C17.6444505,10.4441414 17.8173761,10.2830651 17.8173761,10.0843984 L17.8173761,9.15816547 C17.8173761,8.50367205 18.337473,7.97002977 18.9792026,7.97002977 L19.0135237,7.97002977 C19.653556,7.97002977 20.1757274,8.50156418 20.177236,9.15394973 C20.1823276,11.1847062 20.1813847,11.8757361 20.1787446,13.7208244 L20.1787446,13.7208244 Z" id="Shape"></path>
                                <path d="M12.941514,3.56317752 L17.9469289,3.56317752 L17.0494882,4.39912339 C16.949542,4.48958613 16.9095636,4.62308453 16.9450162,4.74850273 C16.9804687,4.87409663 17.0856951,4.97211253 17.220528,5.00513586 C17.3551724,5.03798346 17.4984914,5.00074443 17.5956088,4.90764689 L19.1466595,3.46305375 C19.2975216,3.32252912 19.2975216,3.09470354 19.1466595,2.9543546 L17.5956088,1.50976145 C17.4445582,1.37064207 17.2012931,1.3713447 17.0511853,1.5111667 C16.900889,1.65116435 16.9001347,1.87776028 17.0494882,2.0184606 L17.9354256,2.84369144 L12.941514,2.84369144 C12.7282328,2.84369144 12.5553071,3.00476778 12.5553071,3.20343448 C12.5553071,3.40210118 12.7282328,3.56317752 12.941514,3.56317752 L12.941514,3.56317752 Z" id="Path"></path>
                                <path d="M1.31853448,3.56317752 L6.27944506,3.56317752 C6.49272632,3.56317752 6.66565195,3.40210118 6.66565195,3.20343448 C6.66565195,3.00476778 6.49272632,2.84369144 6.27944506,2.84369144 L1.3300377,2.84369144 L2.21597523,2.0184606 C2.36532868,1.87776028 2.36457437,1.65116435 2.21427804,1.5111667 C2.06417023,1.3713447 1.82090517,1.37064207 1.66985454,1.50976145 L0.118803903,2.9543546 C-0.0318696,3.09487923 -0.0318696,3.32270476 0.118803903,3.46305375 L1.66985454,4.90764689 C1.76716057,4.99951488 1.90991379,5.03569995 2.0438039,5.00250101 C2.17769397,4.96947773 2.28216597,4.87198876 2.31780712,4.74727313 C2.35344828,4.62255755 2.31460127,4.48976178 2.21597523,4.39894775 L1.31853448,3.56317752 Z" id="Path"></path>
                            </g>
                        </g>
                    </g>
                </g>
            </g>
        </g>
    </g>
</svg>