<?xml version="1.0" encoding="UTF-8"?>
<svg width="28px" height="29px" viewBox="0 0 28 29" version="1.1" xmlns="http://www.w3.org/2000/svg" xmlns:xlink="http://www.w3.org/1999/xlink">
    <!-- Generator: Sketch 58 (84663) - https://sketch.com -->
    <title>Swipe up</title>
    <desc>Created with Sketch.</desc>
    <g id="AnaPopova-Site" stroke="none" stroke-width="1" fill="none" fill-rule="evenodd">
        <g id="Prod_One_375---Added-to-cart-new2" transform="translate(-335.000000, -654.000000)">
            <g id="Dascription-" transform="translate(0.000000, 506.000000)">
                <g id="Group-9">
                    <g id="Swipe-up" transform="translate(335.000000, 148.492386)">
                        <g id="swipe-up-(1)-2" transform="translate(5.000000, 4.040609)" fill="#85736B" fill-rule="nonzero">
                            <g id="swipe-up-(1)">
                                <path d="M17.8926102,12.4681653 L16.5148475,8.04962253 C16.4666019,7.89449708 16.3245737,7.78714026 16.1615593,7.78257776 L14.0869831,7.72485478 C14.0281117,7.60406334 13.9095636,7.52320656 13.7751864,7.51219114 L11.6478305,7.33902217 C11.5993335,7.18360236 11.4567081,7.07628742 11.293322,7.07228121 L9.22454237,7.02033052 L8.19213559,3.70885386 C8.034091,3.20235593 7.61670027,2.81829471 7.09719046,2.70134235 C6.57768065,2.58438999 6.03497766,2.75231433 5.67351247,3.14185989 C5.31204727,3.53140546 5.18673503,4.08339102 5.34477966,4.58988894 L7.56213559,11.7007534 L6.3,10.5572306 C5.88822601,10.1919958 5.31114603,10.0752312 4.78888579,10.2514764 C4.26662555,10.4277217 3.87972699,10.8697965 3.77577161,11.4090727 C3.67181624,11.9483488 3.86683584,12.5016602 4.28644068,12.8579474 L6.04586441,14.4313545 L6.04769492,14.4313545 L6.04769492,14.4331774 C6.43474567,14.8226369 6.76418247,15.2649538 7.02610169,15.746831 C7.49135593,16.506344 7.93098305,17.2221091 8.63572881,17.2609961 C9.56257627,17.3120354 9.78498305,17.906886 10.1282034,19.0419022 L10.3945424,19.9019747 C10.4570197,20.1023545 10.6707404,20.2144102 10.872,20.1523102 C11.2359661,20.0392947 11.1746441,19.8427327 10.9464407,19.1114736 L10.8585763,18.8228587 C10.5412881,17.7738193 10.1815932,16.5850296 8.67813559,16.5023946 C8.37305085,16.4856853 8.00328814,15.882632 7.67684746,15.3506691 C7.37715267,14.8053048 6.9995938,14.3061192 6.5559661,13.8687073 L6.5559661,13.8687073 L6.55291525,13.8659731 L6.55291525,13.8659731 L4.78983051,12.2867936 C4.55311283,12.0844562 4.46244646,11.7598475 4.56025524,11.4648557 C4.65806401,11.1698639 4.92500344,10.9628321 5.23616949,10.9406328 C5.4387614,10.9241367 5.63944901,10.9898754 5.79264407,11.1229159 L8.08474576,13.2045891 C8.39989831,13.4719377 8.84989831,13.2574512 8.70559322,12.8114652 L6.07118644,4.3656807 C5.99379908,4.11821145 6.05486953,3.84842793 6.23139314,3.65795497 C6.40791675,3.46748201 6.67307539,3.38525699 6.92698636,3.44225328 C7.18089733,3.49924957 7.38498552,3.68680807 7.46237288,3.93427732 L9.52535593,10.5484203 C9.56337916,10.6808192 9.67039877,10.7823464 9.80504126,10.8137516 C9.93968376,10.8451568 10.0808489,10.8015185 10.1739626,10.6997071 C10.2670762,10.5978957 10.2975464,10.4538665 10.2535932,10.3233006 L9.46189831,7.78652723 L10.9992203,7.82511049 L11.9614576,10.9108599 C12.0108967,11.06973 12.1583998,11.1780774 12.3254237,11.1782085 C12.3638081,11.1780824 12.4019581,11.1722456 12.4386102,11.1608916 C12.535157,11.1310233 12.6158269,11.064173 12.6628614,10.9750571 C12.7098958,10.8859411 12.7194389,10.7818651 12.6893898,10.6857402 L11.8897627,8.12132056 L13.4548475,8.24861494 L14.3453898,11.1043838 C14.3948289,11.263254 14.542332,11.3716013 14.7093559,11.3717324 C14.7477403,11.3716063 14.7858903,11.3657696 14.8225424,11.3544155 C14.9191596,11.3245506 14.9998852,11.2576524 15.0469269,11.1684658 C15.0939686,11.0792791 15.1034646,10.9751252 15.073322,10.8789603 L14.3289153,8.49135529 L15.8671525,8.53419182 L17.1643729,12.693285 C17.3195098,13.1915741 17.2184221,13.7339768 16.8940678,14.143651 C16.2854829,14.9410202 16.1097939,15.9855075 16.4242373,16.936836 L16.7372542,17.941216 C16.7866933,18.1000861 16.9341965,18.2084335 17.1012203,18.2085646 C17.139604,18.2084294 17.1777527,18.2025929 17.2144068,18.1912477 C17.3109536,18.1613794 17.3916235,18.0945291 17.438658,18.0054132 C17.4856924,17.9162972 17.4952355,17.8122212 17.4651864,17.7160963 L17.1521695,16.7117163 C16.9126136,15.9990857 17.040012,15.2147319 17.4929492,14.6136376 C17.9728289,14.0076512 18.1223057,13.2052258 17.8926102,12.4681653 L17.8926102,12.4681653 Z" id="Path"></path>
                                <path d="M3.81722034,6.84260448 C3.74569934,6.77136466 3.64868473,6.73134097 3.54752542,6.73134097 C3.44636612,6.73134097 3.34935151,6.77136466 3.27783051,6.84260448 L2.34610169,7.77042556 L2.34610169,1.32975535 L3.27783051,2.25757643 C3.4267789,2.40590011 3.66827194,2.4059001 3.81722033,2.25757642 C3.96616871,2.10925273 3.96616872,1.86877253 3.81722034,1.72044884 L2.23474576,0.144307469 C2.16322476,0.0730676526 2.06621015,0.033043961 1.96505085,0.033043961 C1.86389154,0.033043961 1.76687693,0.0730676526 1.69535593,0.144307469 L0.112576271,1.72044884 C-0.0319899349,1.86941646 -0.0299906038,2.10627388 0.117069891,2.25280047 C0.264130386,2.39932706 0.50198421,2.40145201 0.651661017,2.25757643 L1.58369492,1.32975535 L1.58369492,7.77042556 L0.651661017,6.84260448 C0.501592921,6.70172057 0.266237703,6.70517282 0.120401742,6.85039713 C-0.0254342177,6.99562144 -0.0289010099,7.22998957 0.112576271,7.37942827 L1.69535593,8.95556963 C1.76687693,9.02680945 1.86389154,9.06683314 1.96505085,9.06683314 C2.06621015,9.06683314 2.16322476,9.02680945 2.23474576,8.95556963 L3.81722034,7.37942827 C3.88874165,7.3082591 3.92893162,7.21170168 3.92893162,7.11101637 C3.92893162,7.01033107 3.88874165,6.91377364 3.81722034,6.84260448 Z" id="Path"></path>
                            </g>
                        </g>
                        <rect id="Rectangle" stroke="#85736B" x="0.5" y="0.5" width="27" height="27.284264"></rect>
                    </g>
                </g>
            </g>
        </g>
    </g>
</svg>