<?xml version="1.0" encoding="UTF-8"?>
<svg width="17px" height="12px" viewBox="0 0 17 12" version="1.1" xmlns="http://www.w3.org/2000/svg" xmlns:xlink="http://www.w3.org/1999/xlink">
    <!-- Generator: Sketch 58 (84663) - https://sketch.com -->
    <title>undo</title>
    <desc>Created with Sketch.</desc>
    <g id="AnaPopova-Site" stroke="none" stroke-width="1" fill="none" fill-rule="evenodd" opacity="0.707310268">
        <g id="Burger_375---new-Copy" transform="translate(-14.000000, -50.000000)" fill="#42261D" fill-rule="nonzero">
            <g id="undo" transform="translate(14.000000, 50.000000)">
                <path d="M5.79039155,7.90274941 L1.97654583,4.49986843 L5.79039155,1.09698745 C6.09858274,0.821694438 6.06263522,0.403647528 5.70944876,0.163204933 C5.3562623,-0.0770162886 4.82021412,-0.0487754314 4.5114549,0.22629621 L0.209720942,4.06461768 C-0.0699069806,4.31388357 -0.0699069806,4.68604304 0.209720942,4.93530892 L4.51149548,8.77366202 C4.6795887,8.92321523 4.91478938,9 5.15136953,9 C5.34948664,9 5.54841521,8.94617476 5.70944876,8.83653193 C6.06267579,8.59608933 6.09886675,8.17804242 5.79039155,7.90274941 Z" id="Path"></path>
                <path d="M12.2478125,4 L1.6539375,4 C1.29275,4 1,4.24639787 1,4.55045606 C1,4.85448794 1.29275,5.10091212 1.6539375,5.10091212 L12.2478125,5.10091212 C14.1470625,5.10091212 15.692125,6.40145203 15.692125,8 C15.692125,9.59854797 14.1470625,10.8990879 12.2478125,10.8990879 L2.525875,10.8990879 C2.1646875,10.8990879 1.8719375,11.1455121 1.8719375,11.4495439 C1.8719375,11.7535758 2.1646875,12 2.525875,12 L12.2478125,12 C14.8679375,12 17,10.2055069 17,8 C17,5.79449307 14.8681563,4 12.2478125,4 Z" id="Path"></path>
            </g>
        </g>
    </g>
</svg>